<?xml version="1.0" encoding="UTF-8" standalone="no"?>
<svg
   width="1200"
   height="300"
   viewBox="0 0 317.5 79.375"
   version="1.1"
   id="svg952"
   inkscape:version="1.2.1 (9c6d41e410, 2022-07-14)"
   sodipodi:docname="camerata_musica_logo_text_grey.svg"
   inkscape:export-filename="camerata_musica_logo_text_grey.png"
   inkscape:export-xdpi="300"
   inkscape:export-ydpi="300"
   xmlns:inkscape="http://www.inkscape.org/namespaces/inkscape"
   xmlns:sodipodi="http://sodipodi.sourceforge.net/DTD/sodipodi-0.dtd"
   xmlns="http://www.w3.org/2000/svg"
   xmlns:svg="http://www.w3.org/2000/svg"
   xmlns:rdf="http://www.w3.org/1999/02/22-rdf-syntax-ns#"
   xmlns:cc="http://creativecommons.org/ns#"
   xmlns:dc="http://purl.org/dc/elements/1.1/">
  <defs
     id="defs946" />
  <sodipodi:namedview
     id="base"
     pagecolor="#4b4b4b"
     bordercolor="#666666"
     borderopacity="1.0"
     inkscape:pageopacity="0"
     inkscape:pageshadow="2"
     inkscape:zoom="1"
     inkscape:cx="481.5"
     inkscape:cy="169"
     inkscape:document-units="px"
     inkscape:current-layer="layer1"
     inkscape:document-rotation="0"
     showgrid="true"
     inkscape:pagecheckerboard="true"
     units="px"
     inkscape:window-width="1730"
     inkscape:window-height="641"
     inkscape:window-x="26"
     inkscape:window-y="23"
     inkscape:window-maximized="0"
     inkscape:showpageshadow="0"
     inkscape:deskcolor="#4b4b4b" />
  <metadata
     id="metadata949">
    <rdf:RDF>
      <cc:Work
         rdf:about="">
        <dc:format>image/svg+xml</dc:format>
        <dc:type
           rdf:resource="http://purl.org/dc/dcmitype/StillImage" />
      </cc:Work>
    </rdf:RDF>
  </metadata>
  <g
     inkscape:label="Layer 1"
     inkscape:groupmode="layer"
     id="layer1">
    <g
       id="g110"
       style="display:inline;fill:#f2f2f2;stroke:#cccccc;stroke-opacity:1"
       inkscape:label="g110"
       transform="matrix(0.38622168,0,0,0.38622168,8.1017654,-12.690109)">
      <path
         style="display:inline;fill:#f2f2f2;fill-opacity:1;stroke-width:0.0846667;stroke:#cccccc;stroke-opacity:1"
         d="m -20.208495,231.57838 c 7e-6,-3.39936 0.01049,-4.77768 0.02331,-3.06292 0.01281,1.71475 0.01281,4.49605 -1.3e-5,6.18066 -0.01282,1.68462 -0.0233,0.28163 -0.02329,-3.11774 z m 167.165685,4.72017 c -0.10531,-0.13429 -0.10232,-0.13728 0.032,-0.032 0.0815,0.0639 0.14817,0.13059 0.14817,0.14817 0,0.0697 -0.0695,0.0248 -0.18014,-0.1162 z M -20.208495,218.87838 c 7e-6,-3.39936 0.01049,-4.77768 0.02331,-3.06292 0.01281,1.71475 0.01281,4.49605 -1.3e-5,6.18066 -0.01282,1.68462 -0.0233,0.28163 -0.02329,-3.11774 z m 178.798155,5.99291 c 0.1287,-0.0194 0.3192,-0.0189 0.42333,0.001 0.10414,0.0201 -0.001,0.036 -0.23399,0.0354 -0.23284,-8.5e-4 -0.31804,-0.0171 -0.18934,-0.0365 z M 26.048126,221.48755 c 0.06112,-0.0245 0.134145,-0.0215 0.162279,0.007 0.02813,0.0281 -0.02187,0.0482 -0.111125,0.0445 -0.09863,-0.004 -0.118695,-0.0241 -0.05115,-0.0512 z m -46.256621,-15.30917 c 7e-6,-3.39936 0.01049,-4.77768 0.02331,-3.06292 0.01281,1.71475 0.01281,4.49605 -1.3e-5,6.18066 -0.01282,1.68462 -0.0233,0.28163 -0.02329,-3.11774 z m 7.573423,-4.0005 -0.205258,-0.23283 0.232833,0.20526 c 0.217618,0.19184 0.27166,0.26041 0.205259,0.26041 -0.01517,0 -0.119941,-0.10478 -0.232834,-0.23284 z m 15.5200504,-1.88383 c 0,-0.16298 0.017424,-0.22966 0.038721,-0.14817 0.021295,0.0815 0.021295,0.21485 0,0.29634 -0.021296,0.0815 -0.038721,0.0148 -0.038721,-0.14817 z m -23.0934734,-6.81567 c 7e-6,-3.39936 0.01049,-4.77768 0.02331,-3.06292 0.01281,1.71475 0.01281,4.49605 -1.3e-5,6.18066 -0.01282,1.68462 -0.0233,0.28163 -0.02329,-3.11774 z m 23.1043531,5.37634 c 0,-0.44239 0.01427,-0.62336 0.031711,-0.40217 0.017441,0.22119 0.017441,0.58314 0,0.80433 -0.017441,0.2212 -0.031711,0.0402 -0.031711,-0.40216 z M -14.230646,198.128 c 0.0041,-0.0986 0.02412,-0.1187 0.05115,-0.0512 0.02446,0.0611 0.02145,0.13415 -0.0067,0.16228 -0.02813,0.0281 -0.04814,-0.0219 -0.04447,-0.11112 z m 0,-0.762 c 0.0041,-0.0986 0.02412,-0.1187 0.05115,-0.0512 0.02446,0.0611 0.02145,0.13415 -0.0067,0.16228 -0.02813,0.0281 -0.04814,-0.0219 -0.04447,-0.11112 z m 6.2814267,-2.46462 c 0.082378,-0.0215 0.1966781,-0.0201 0.254,0.003 0.057322,0.0232 -0.010078,0.0408 -0.1497779,0.039 -0.1397,-0.002 -0.1866002,-0.0207 -0.1042221,-0.0422 z m -1.3774445,-3.7833 c 0,-0.0176 0.066675,-0.0842 0.1481667,-0.14817 0.1342864,-0.1053 0.137281,-0.10232 0.031967,0.032 -0.110606,0.14103 -0.1801334,0.18589 -0.1801334,0.1162 z M -20.206725,151.10272 c 0,-19.72098 0.0097,-27.78866 0.02156,-17.92817 0.01186,9.86049 0.01186,25.99584 0,35.85633 -0.01186,9.8605 -0.02156,1.79282 -0.02156,-17.92816 z m 125.285885,28.81297 c 0.0815,-0.0213 0.21485,-0.0213 0.29634,0 0.0815,0.0213 0.0148,0.0387 -0.14817,0.0387 -0.16298,0 -0.22966,-0.0174 -0.14817,-0.0387 z m 2.54,0 c 0.0815,-0.0213 0.21485,-0.0213 0.29634,0 0.0815,0.0213 0.0148,0.0387 -0.14817,0.0387 -0.16298,0 -0.22966,-0.0174 -0.14817,-0.0387 z m -7.14904,-2.53947 c 0.0611,-0.0245 0.13415,-0.0215 0.16228,0.007 0.0281,0.0281 -0.0219,0.0481 -0.11112,0.0445 -0.0986,-0.004 -0.1187,-0.0241 -0.0512,-0.0512 z m 9.398,0 c 0.0611,-0.0245 0.13415,-0.0215 0.16228,0.007 0.0281,0.0281 -0.0219,0.0481 -0.11112,0.0445 -0.0986,-0.004 -0.1187,-0.0241 -0.0512,-0.0512 z m 11.27654,-1.84717 c 0.15798,-0.16298 0.30627,-0.29633 0.32955,-0.29633 0.0233,0 -0.0869,0.13335 -0.24488,0.29633 -0.15797,0.16298 -0.30626,0.29633 -0.32955,0.29633 -0.0233,0 0.0869,-0.13335 0.24488,-0.29633 z M 131.98868,173.49 c 0.004,-0.0986 0.0241,-0.1187 0.0512,-0.0512 0.0245,0.0611 0.0215,0.13415 -0.007,0.16228 -0.0281,0.0281 -0.0481,-0.0219 -0.0445,-0.11112 z m 14.478,-1.35467 c 0.004,-0.0986 0.0241,-0.11869 0.0512,-0.0512 0.0245,0.0611 0.0215,0.13414 -0.007,0.16228 -0.0281,0.0281 -0.0482,-0.0219 -0.0445,-0.11113 z m -14.47131,-0.20461 c 0,-0.11642 0.0192,-0.16404 0.0427,-0.10584 0.0235,0.0582 0.0235,0.15346 0,0.21167 -0.0235,0.0582 -0.0427,0.0106 -0.0427,-0.10583 z m 14.478,-1.60867 c 0,-0.11642 0.0192,-0.16404 0.0427,-0.10583 0.0235,0.0582 0.0235,0.15346 0,0.21166 -0.0235,0.0582 -0.0427,0.0106 -0.0427,-0.10583 z M 64.569003,156.28953 c 0.246041,-0.0172 0.627041,-0.017 0.846667,0 0.219633,0.0174 0.01833,0.0314 -0.447337,0.0312 -0.465666,0 -0.645363,-0.0144 -0.39933,-0.0316 z m 72.252367,-2.47748 c 0,-0.11642 0.0192,-0.16404 0.0427,-0.10583 0.0235,0.0582 0.0235,0.15346 0,0.21166 -0.0235,0.0582 -0.0427,0.0106 -0.0427,-0.10583 z M 61.9415,153.24798 c 0.05821,-0.0235 0.153458,-0.0235 0.211667,0 0.05821,0.0235 0.01058,0.0427 -0.105834,0.0427 -0.116416,0 -0.164041,-0.0192 -0.105833,-0.0427 z m 6.355291,-0.002 c 0.06112,-0.0245 0.134146,-0.0215 0.162281,0.007 0.02813,0.0281 -0.02188,0.0481 -0.111125,0.0445 -0.09864,-0.004 -0.118694,-0.0241 -0.05116,-0.0512 z m 83.588549,-1.34622 c 0.004,-0.0986 0.0241,-0.11869 0.0512,-0.0512 0.0245,0.0611 0.0215,0.13414 -0.007,0.16228 -0.0281,0.0281 -0.0481,-0.0219 -0.0445,-0.11113 z m -18.034,-0.16933 c 0.004,-0.0986 0.0241,-0.1187 0.0512,-0.0512 0.0245,0.0611 0.0214,0.13415 -0.007,0.16228 -0.0281,0.0281 -0.0482,-0.0219 -0.0445,-0.11112 z m 2.97003,-0.54328 c 0,-0.11642 0.0192,-0.16404 0.0427,-0.10584 0.0235,0.0582 0.0235,0.15346 0,0.21167 -0.0235,0.0582 -0.0427,0.0106 -0.0427,-0.10583 z m 11.83996,-0.28596 c 0,-0.0176 0.0667,-0.0842 0.14817,-0.14816 0.13429,-0.10531 0.13728,-0.10232 0.032,0.032 -0.11061,0.14103 -0.18014,0.18588 -0.18014,0.11619 z M 66.788666,124.73942 c 0,-0.0176 0.06667,-0.0843 0.148167,-0.14817 0.13429,-0.10531 0.137279,-0.10232 0.03197,0.032 -0.110608,0.14103 -0.180137,0.18588 -0.180137,0.1162 z m -60.5971149,-0.4337 c 6.773e-4,-0.23283 0.017079,-0.31803 0.03654,-0.18934 0.019462,0.1287 0.018941,0.3192 -0.00115,0.42333 -0.020097,0.10414 -0.036019,-0.001 -0.035384,-0.23399 z m 62.1211149,-1.0903 c 0,-0.0176 0.06668,-0.0843 0.148167,-0.14817 0.13429,-0.10531 0.137279,-0.10232 0.03197,0.032 -0.110608,0.14103 -0.180137,0.18588 -0.180137,0.1162 z m -75.0993299,-1.53437 c 0.1093682,-0.11641 0.2179007,-0.21166 0.241184,-0.21166 0.023283,0 -0.047149,0.0952 -0.1565173,0.21166 -0.1093682,0.11642 -0.2179007,0.21167 -0.241184,0.21167 -0.023283,0 0.047149,-0.0952 0.1565173,-0.21167 z m -13.4218311,-12.954 c 7e-6,-3.39936 0.01049,-4.77768 0.02331,-3.06293 0.01281,1.71476 0.01281,4.49606 -1.3e-5,6.18067 -0.01282,1.68461 -0.0233,0.28163 -0.02329,-3.11774 z m 29.5931638,2.29637 c 0,-0.0176 0.066675,-0.0843 0.1481667,-0.14817 0.1342864,-0.10531 0.137281,-0.10232 0.031967,0.032 -0.110606,0.14103 -0.1801334,0.18588 -0.1801334,0.1162 z M 145.71137,104.53605 c 0,-0.11641 0.0192,-0.16404 0.0427,-0.10583 0.0235,0.0582 0.0235,0.15346 0,0.21167 -0.0235,0.0582 -0.0427,0.0106 -0.0427,-0.10584 z m 0,-0.508 c 0,-0.11641 0.0192,-0.16404 0.0427,-0.10583 0.0235,0.0582 0.0235,0.15346 0,0.21167 -0.0235,0.0582 -0.0427,0.0106 -0.0427,-0.10584 z M -20.208495,96.027052 c 7e-6,-3.399366 0.01049,-4.777684 0.02331,-3.062927 0.01281,1.714757 0.01281,4.496057 -1.3e-5,6.180666 -0.01282,1.684609 -0.0233,0.281628 -0.02329,-3.117739 z m 5.575614,2.963334 c 3.72e-4,-0.325967 0.01568,-0.448942 0.03401,-0.273279 0.01833,0.175664 0.01802,0.442364 -6.86e-4,0.592667 -0.0187,0.150303 -0.0337,0.0066 -0.03332,-0.319388 z m 12.5875503,0.518366 c 0,-0.01758 0.066675,-0.08426 0.1481666,-0.148166 0.1342864,-0.105315 0.1372811,-0.10232 0.031967,0.03197 -0.110606,0.141034 -0.1801334,0.185884 -0.1801334,0.1162 z M 157.02745,96.096216 c 0.0611,-0.02446 0.13415,-0.02145 0.16229,0.0067 0.0281,0.02813 -0.0219,0.04815 -0.11113,0.04447 -0.0986,-0.0041 -0.11869,-0.02412 -0.0512,-0.05115 z m 32.63371,-0.17214 c 0.12806,-0.0194 0.33761,-0.0194 0.46567,0 0.12806,0.0194 0.0233,0.03527 -0.23284,0.03527 -0.25611,0 -0.36089,-0.01587 -0.23283,-0.03527 z M -20.208495,83.327053 c 7e-6,-3.399367 0.01049,-4.777685 0.02331,-3.062928 0.01281,1.714757 0.01281,4.496057 -1.3e-5,6.180667 -0.01282,1.68461 -0.0233,0.281627 -0.02329,-3.117739 z m 20.44916416,1.111033 c 0,-0.01758 0.066675,-0.08426 0.14816666,-0.148167 0.13428641,-0.105314 0.13728107,-0.10232 0.0319667,0.03197 -0.11060599,0.141033 -0.18013341,0.185884 -0.18013341,0.1162 z M -20.208495,70.627053 c 7e-6,-3.399367 0.01049,-4.777684 0.02331,-3.062928 0.01281,1.714758 0.01281,4.496058 -1.3e-5,6.180667 -0.01282,1.68461 -0.0233,0.281627 -0.02329,-3.117739 z m 19.98349751,5.799666 c 0.0842848,-0.09313 0.17229497,-0.169333 0.1955783,-0.169333 0.02328333,0 -0.02662682,0.0762 -0.11091163,0.169333 -0.0842848,0.09313 -0.17229497,0.169334 -0.1955783,0.169334 -0.0232833,0 0.0266268,-0.0762 0.11091163,-0.169334 z m 0.76199997,-0.762 c 0.0842848,-0.09313 0.17229497,-0.169333 0.1955783,-0.169333 0.0232833,0 -0.0266268,0.0762 -0.11091163,0.169333 -0.0842848,0.09313 -0.17229497,0.169334 -0.1955783,0.169334 -0.0232833,0 0.0266268,-0.0762 0.11091163,-0.169334 z M 22.743073,69.845283 c 0.199139,-0.01788 0.503939,-0.01763 0.677333,5.93e-4 0.173394,0.01819 0.01046,0.03283 -0.362071,0.03252 -0.372533,-3.39e-4 -0.514402,-0.01519 -0.315262,-0.03308 z M -4.0483061,68.256386 c 3.387e-4,-0.372533 0.015193,-0.514402 0.033078,-0.315262 0.017885,0.199139 0.017634,0.503939 -5.926e-4,0.677333 -0.018192,0.173394 -0.032826,0.01046 -0.032519,-0.362071 z"
         id="path124" />
      <path
         style="display:inline;fill:#f2f2f2;fill-opacity:1;stroke-width:0.0846667;stroke:#cccccc;stroke-opacity:1"
         d="m 41.670846,237.73788 c 34.03245,-0.0117 89.696544,-0.0117 123.697994,0 34.00145,0.0117 6.15672,0.0213 -61.87717,0.0213 -68.033902,0 -95.8532706,-0.01 -61.820824,-0.0213 z m -19.293253,-8.5725 c 0,-2.07221 0.01102,-2.91994 0.02449,-1.88383 0.01347,1.03611 0.01347,2.73156 0,3.76767 -0.01347,1.03611 -0.02449,0.18838 -0.02449,-1.88384 z m 1.352543,-1.60866 c 0,-1.18745 0.01191,-1.67323 0.02646,-1.0795 0.01455,0.59372 0.01455,1.56527 0,2.159 -0.01456,0.59372 -0.02646,0.10795 -0.02646,-1.0795 z M 147.73,228.36105 c 0.10936,-0.11642 0.21789,-0.21167 0.24118,-0.21167 0.0233,0 -0.0472,0.0952 -0.15652,0.21167 -0.10936,0.11642 -0.21789,0.21167 -0.24118,0.21167 -0.0233,0 0.0472,-0.0952 0.15652,-0.21167 z m 13.63801,0.0776 c 0.004,-0.0986 0.0241,-0.11869 0.0512,-0.0512 0.0245,0.0611 0.0214,0.13414 -0.007,0.16228 -0.0281,0.0281 -0.0481,-0.0219 -0.0445,-0.11113 z m -179.563507,-3.4007 c 1.105959,-0.0134 2.915708,-0.0134 4.021667,0 1.105958,0.0134 0.201083,0.0243 -2.010834,0.0243 -2.211916,0 -3.116791,-0.0109 -2.010833,-0.0243 z m 24.8067797,3e-5 15.7262803,-0.0217 0.02255,-6.11694 0.02255,-6.11695 -8.47e-4,6.13834 -8.46e-4,6.13833 H 6.6329684 -9.115031 l 15.7262798,-0.0217 z m 17.1188063,-0.0476 c -0.02343,-0.0611 -0.03038,-0.54684 -0.01544,-1.0795 l 0.02716,-0.9685 0.0181,1.03542 0.0181,1.03541 1.714499,0.0248 1.7145,0.0248 -1.717156,0.0193 c -1.352195,0.0152 -1.726211,-0.004 -1.759756,-0.0917 z m 37.915078,0.0475 c 17.264591,-0.0118 45.515743,-0.0118 62.780333,0 17.26459,0.0118 3.13901,0.0214 -31.390168,0.0214 -34.529182,0 -48.654756,-0.01 -31.390165,-0.0214 z m 116.204993,0 c 9.04558,-0.0119 23.84743,-0.0119 32.893,0 9.04558,0.0119 1.64465,0.0216 -16.4465,0.0216 -18.09115,0 -25.49207,-0.01 -16.4465,-0.0216 z M 23.712517,217.12155 c 0.01055,-2.43311 0.02949,-3.71898 0.0421,-2.8575 0.05892,4.02667 0.05991,7.28141 0.0022,7.28138 -0.03493,-3e-5 -0.05487,-1.99077 -0.04432,-4.42388 z m -29.4020525,2.54 c 0.3508553,-0.37382 0.4268715,-0.44104 0.4268715,-0.37746 0,0.0136 -0.1809749,0.19456 -0.4021666,0.40217 l -0.4021667,0.37746 z M -15.18983,212.3379 c 2.759075,-0.0124 7.2739245,-0.0124 10.0329994,0 2.7590749,0.0124 0.50165,0.0225 -5.0164994,0.0225 -5.51815,0 -7.775575,-0.0101 -5.0165,-0.0225 z m 29.082027,0 8.444529,-0.0222 0.02363,-3.36508 0.02363,-3.3651 -0.0015,3.38667 -0.0015,3.38667 -8.466666,8.4e-4 -8.4666667,8.5e-4 8.4445287,-0.0222 z m 9.8398,-0.0427 c -0.02238,-0.0583 -0.03025,-1.59184 -0.01749,-3.40783 l 0.0232,-3.3018 0.02014,3.36545 0.02014,3.36545 67.712163,0.0213 67.71216,0.0213 -67.714818,0.0211 c -54.1783,0.0169 -67.722954,-8e-5 -67.75551,-0.0849 z m 154.118163,0.0427 c 9.04558,-0.0119 23.84743,-0.0119 32.893,0 9.04558,0.0119 1.64465,0.0216 -16.4465,0.0216 -18.09115,0 -25.49207,-0.01 -16.4465,-0.0216 z M 2.8787037,200.71738 c 0,-0.11641 0.019218,-0.16404 0.042705,-0.10583 0.023487,0.0582 0.023487,0.15346 0,0.21167 -0.023487,0.0582 -0.042705,0.0106 -0.042705,-0.10584 z M -18.661163,199.638 c 0.849841,-0.0138 2.240491,-0.0138 3.090333,0 0.849841,0.0138 0.154516,0.0251 -1.545167,0.0251 -1.699683,0 -2.395008,-0.0113 -1.545166,-0.0251 z m 16.3886691,-4e-5 c 0.9693765,-0.0136 2.53147646,-0.0136 3.4713331,4e-5 0.9398559,0.0136 0.1467299,0.0247 -1.76250334,0.0247 -1.90923326,-2e-5 -2.67820726,-0.0112 -1.70882976,-0.0248 z m 49.0163279,-8e-5 c 20.617391,-0.0117 54.354936,-0.0117 74.972326,0 20.6174,0.0118 3.74862,0.0214 -37.486161,0.0214 -41.234782,0 -58.103556,-0.01 -37.486165,-0.0214 z m 131.106326,0 c 9.04558,-0.0119 23.84743,-0.0119 32.893,0 9.04558,0.0119 1.64465,0.0216 -16.4465,0.0216 -18.09115,0 -25.49207,-0.01 -16.4465,-0.0216 z m -192.067847,-1.88383 c 0,-0.16298 0.01742,-0.22966 0.03872,-0.14817 0.0213,0.0815 0.0213,0.21485 0,0.29634 -0.0213,0.0815 -0.03872,0.0148 -0.03872,-0.14817 z m 38.863522,-10.81617 c 24.668691,-0.0117 65.035639,-0.0117 89.704325,0 24.6687,0.0117 4.48522,0.0213 -44.85216,0.0213 -49.337382,0 -69.52085583,-0.01 -44.852165,-0.0213 z m 153.204325,0 c 9.04558,-0.0119 23.84743,-0.0119 32.893,0 9.04558,0.0119 1.64465,0.0216 -16.4465,0.0216 -18.09115,0 -25.49207,-0.01 -16.4465,-0.0216 z m -72.17833,-7.02448 c 0.12806,-0.0194 0.33761,-0.0194 0.46567,0 0.12806,0.0194 0.0233,0.0353 -0.23284,0.0353 -0.25611,0 -0.36089,-0.0159 -0.23283,-0.0353 z m 0.97178,-8.4e-4 c 0.1503,-0.0187 0.417,-0.019 0.59267,-8.5e-4 0.17566,0.0183 0.0527,0.0336 -0.27328,0.034 -0.32597,0 -0.46969,-0.0146 -0.31939,-0.0333 z m -6.42749,-2.53673 c 0.0611,-0.0245 0.13415,-0.0215 0.16228,0.007 0.0281,0.0281 -0.0219,0.0481 -0.11112,0.0445 -0.0986,-0.004 -0.1187,-0.0241 -0.0512,-0.0512 z m 9.906,0 c 0.0611,-0.0245 0.13415,-0.0215 0.16228,0.007 0.0281,0.0281 -0.0219,0.0481 -0.11112,0.0445 -0.0986,-0.004 -0.1187,-0.0241 -0.0512,-0.0512 z m 24.91493,-0.64067 c 0.0194,-0.0116 0.14958,-0.11642 0.28928,-0.23283 l 0.254,-0.21167 -0.20526,0.23283 c -0.11289,0.12806 -0.24307,0.23284 -0.28928,0.23284 -0.0462,0 -0.0681,-0.01 -0.0487,-0.0212 z m -39.504051,-1.84111 c 0.08428,-0.0931 0.172296,-0.16933 0.19558,-0.16933 0.02328,0 -0.02663,0.0762 -0.110914,0.16933 -0.08429,0.0931 -0.172296,0.16933 -0.19558,0.16933 -0.02328,0 0.02663,-0.0762 0.110914,-0.16933 z m 36.470351,-1.82033 c 9.3e-4,-0.18627 0.0183,-0.2525 0.0385,-0.14718 0.0203,0.10532 0.0195,0.25772 -0.002,0.33867 -0.0212,0.0809 -0.0378,-0.005 -0.0368,-0.19149 z m 0,-0.67734 c 9.3e-4,-0.18626 0.0183,-0.2525 0.0385,-0.14717 0.0203,0.10532 0.0195,0.25772 -0.002,0.33867 -0.0212,0.0809 -0.0378,-0.005 -0.0368,-0.1915 z m 14.478,-0.67733 c 9.3e-4,-0.18627 0.0183,-0.2525 0.0385,-0.14717 0.0203,0.10531 0.0195,0.25771 -0.002,0.33866 -0.0212,0.0809 -0.0378,-0.005 -0.0368,-0.19149 z m 0.002,-0.889 c 0,-0.20955 0.0165,-0.29527 0.0367,-0.1905 0.0202,0.10478 0.0202,0.27623 0,0.381 -0.0202,0.10478 -0.0367,0.0191 -0.0367,-0.1905 z m -12.63171,-14.95072 c 0.004,-0.0986 0.0241,-0.11869 0.0512,-0.0512 0.0245,0.0611 0.0215,0.13414 -0.007,0.16228 -0.0281,0.0281 -0.0481,-0.0219 -0.0445,-0.11113 z m 2.97315,-2.44828 c 0.002,-0.1397 0.0207,-0.1866 0.0422,-0.10422 0.0215,0.0824 0.0201,0.19668 -0.003,0.254 -0.0232,0.0573 -0.0408,-0.0101 -0.039,-0.14978 z m -75.131705,-0.18483 c 0.06112,-0.0245 0.134144,-0.0215 0.162278,0.007 0.02813,0.0281 -0.02187,0.0481 -0.111125,0.0445 -0.09863,-0.004 -0.118694,-0.0241 -0.05115,-0.0512 z m 90.199255,-1.6355 c 0,-0.11642 0.0192,-0.16404 0.0427,-0.10584 0.0235,0.0582 0.0235,0.15346 0,0.21167 -0.0235,0.0582 -0.0427,0.0106 -0.0427,-0.10583 z m -15.07066,-0.0847 c 0,-0.11642 0.0192,-0.16404 0.0427,-0.10583 0.0235,0.0582 0.0235,0.15346 0,0.21166 -0.0235,0.0582 -0.0427,0.0106 -0.0427,-0.10583 z m -2.95706,-0.16933 c 0,-0.16299 0.0174,-0.22966 0.0387,-0.14817 0.0213,0.0815 0.0213,0.21484 0,0.29633 -0.0213,0.0815 -0.0387,0.0148 -0.0387,-0.14816 z m 15.22035,-0.889 c 0.10937,-0.11642 0.2179,-0.21167 0.24118,-0.21167 0.0233,0 -0.0471,0.0953 -0.15651,0.21167 -0.10936,0.11641 -0.2179,0.21166 -0.24118,0.21166 -0.0233,0 0.0472,-0.0953 0.15651,-0.21166 z M 6.17402,123.79067 c 0.00406,-0.0986 0.024125,-0.1187 0.051152,-0.0512 0.024458,0.0611 0.02145,0.13415 -0.00668,0.16228 -0.028134,0.0281 -0.048145,-0.0219 -0.044469,-0.11112 z m 71.859438,-6.10445 c 0.06112,-0.0245 0.134146,-0.0215 0.16228,0.007 0.02813,0.0281 -0.02188,0.0481 -0.111125,0.0445 -0.09864,-0.004 -0.118694,-0.0241 -0.05116,-0.0511 z m -91.988984,-2.46099 c 3.437942,-0.0122 9.0386415,-0.0122 12.4459989,0 3.4073582,0.0123 0.59449631,0.0223 -6.2508034,0.0223 -6.8452995,0 -9.6331375,-0.01 -6.1951955,-0.0223 z m 75.255019,-1e-5 c 30.392535,-0.0117 80.151137,-0.0117 110.574657,0 30.42354,0.0117 5.55691,0.0213 -55.25915,0.0213 -60.816066,0 -85.708043,-0.01 -55.315507,-0.0213 z M 9.7656688,110.63205 c 0.084285,-0.0931 0.1722949,-0.16933 0.1955783,-0.16933 0.023283,0 -0.026627,0.0762 -0.1109117,0.16933 -0.084285,0.0931 -0.1722949,0.16934 -0.1955783,0.16934 -0.023283,0 0.026627,-0.0762 0.1109117,-0.16934 z M 161.01007,102.56744 c 0.035,-0.035 14.93971,-0.054 33.1216,-0.0423 l 33.05799,0.0213 -33.1216,0.0423 c -18.21688,0.0233 -33.09297,0.0137 -33.05799,-0.0213 z m -179.665733,-0.0421 c 0.852867,-0.0138 2.224467,-0.0138 3.048,5e-5 0.823533,0.0139 0.125733,0.0252 -1.550667,0.0251 -1.6764,-3e-5 -2.3502,-0.0114 -1.497333,-0.0252 z m 8.6781166,3e-5 c 0.7363307,-0.0141 1.9174307,-0.0141 2.6246666,7e-5 0.707235,0.0141 0.1047826,0.0257 -1.338784,0.0256 -1.4435662,-3e-5 -2.0222142,-0.0116 -1.2858826,-0.0257 z m 7.8740928,-10e-6 c 0.7829491,-0.014 2.04024903,-0.014 2.79399992,6e-5 0.75375088,0.014 0.11315615,0.0255 -1.42354379,0.0254 -1.53669993,-4e-5 -2.15340513,-0.0115 -1.37045613,-0.0255 z m 7.1066226,10e-6 c 0.8265583,-0.0139 2.1791082,-0.0139 3.0056665,0 0.8265583,0.0139 0.1502833,0.0252 -1.5028333,0.0252 -1.6531166,0 -2.3293915,-0.0113 -1.5028332,-0.0252 z m 41.197306,-1.7e-4 c 18.316179,-0.0118 48.262777,-0.0118 66.547995,0 18.28523,0.0118 3.29926,0.0214 -33.302137,0.0214 -36.601399,0 -51.562035,-0.01 -33.245858,-0.0214 z M 22.358902,93.593212 22.338668,89.88937 11.649502,89.86755 0.9603358,89.845729 11.652159,89.824891 c 8.490783,-0.01655 10.700183,9.48e-4 10.73243,0.085 0.02233,0.05821 0.03024,1.744133 0.01758,3.7465 l -0.02303,3.640666 z m 1.374501,-1.651285 0.0023,-2.095541 1.608667,-0.003 1.608666,-0.003 -1.586025,0.02599 -1.586025,0.02599 -0.02491,2.072512 -0.02491,2.072512 0.0023,-2.095541 z M -18.14731,89.825278 c 1.132461,-0.01335 2.961261,-0.01333 4.064,3e-5 1.102739,0.01336 0.17618,0.02428 -2.05902,0.02426 -2.2352,-1.6e-5 -3.137441,-0.01095 -2.00498,-0.02429 z m 14.1758127,1.69e-4 c 0.6402916,-0.01438 1.6880416,-0.01438 2.3283332,0 0.6402916,0.01438 0.1164167,0.02615 -1.1641666,0.02615 -1.2805833,0 -1.8044583,-0.01177 -1.1641666,-0.02615 z m 66.3433033,-1.69e-4 c 17.75738,-0.01176 46.789584,-0.01176 64.516004,0 17.72642,0.01176 3.19765,0.02139 -32.286145,0.02139 -35.483798,0 -49.987235,-0.0096 -32.229859,-0.02139 z m 104.901634,7e-6 c 3.22838,-0.01229 8.48618,-0.01228 11.684,4e-6 3.19782,0.01229 0.55642,0.02234 -5.86978,0.02234 -6.4262,-2e-6 -9.0426,-0.01006 -5.81422,-0.02234 z m 39.37006,-2e-6 c 3.78722,-0.01219 9.95942,-0.01219 13.716,3e-6 3.75659,0.01219 0.65796,0.02217 -6.88584,0.02217 -7.5438,-2e-6 -10.61737,-0.01 -6.83016,-0.02217 z m -184.284234,-6.476655 -0.0206,-6.159091 -8.445499,-0.02199 -8.4455,-0.02199 8.448156,-0.02075 c 6.695881,-0.01645 8.456541,0.0012 8.488573,0.08508 0.02223,0.05821 0.0303,2.849033 0.01794,6.201833 l -0.02248,6.096 z m 1.367235,5.016091 c 0,-0.62865 0.01333,-0.885825 0.02962,-0.5715 0.01629,0.314325 0.01629,0.828675 0,1.143 -0.01629,0.314325 -0.02962,0.05715 -0.02962,-0.5715 z m -27.5074983,0 c 0.084285,-0.09313 0.1722949,-0.169333 0.1955783,-0.169333 0.023283,0 -0.026627,0.0762 -0.1109117,0.169333 -0.084285,0.09313 -0.1722949,0.169333 -0.1955783,0.169333 -0.023283,0 0.026627,-0.0762 0.1109117,-0.169333 z m 27.5155123,-6.900333 0.0012,-4.318 67.712163,-7.9e-5 67.712162,-7.9e-5 -67.690224,0.0213 -67.690231,0.0213 -0.02309,4.296781 -0.02309,4.296781 0.0012,-4.318 z m 5.620686,3.704166 c -0.105314,-0.134286 -0.102319,-0.137281 0.03197,-0.03197 0.08149,0.06391 0.148167,0.130585 0.148167,0.148166 0,0.06968 -0.06953,0.02483 -0.180134,-0.1162 z M -0.01333083,84.692086 c 0,-0.01758 0.066675,-0.08426 0.14816666,-0.148167 0.13428641,-0.105314 0.13728107,-0.10232 0.0319668,0.03197 -0.11060599,0.141033 -0.18013341,0.185884 -0.18013341,0.1162 z M 27.272113,84.326713 c 0.08238,-0.02147 0.196678,-0.02005 0.254,0.0031 0.05732,0.02319 -0.01008,0.04076 -0.149778,0.03903 -0.1397,-0.0017 -0.186601,-0.0207 -0.104222,-0.04217 z m 170.685247,-4.110967 -0.02,-3.026641 -18.26683,-0.02155 -18.26684,-0.02155 18.26949,-0.02097 c 14.59706,-0.01676 18.27769,4.24e-4 18.31029,0.08534 0.0224,0.05847 0.0303,1.439598 0.0174,3.069166 l -0.0234,2.962852 z M -15.903042,77.125233 c 2.366809,-0.01251 6.2149091,-0.0125 8.5513331,7e-6 2.3364249,0.01251 0.399945,0.02274 -4.3032881,0.02274 -4.703233,-4e-6 -6.614853,-0.01024 -4.248045,-0.02275 z m 14.5562112,0.0051 c 0.081492,-0.0213 0.2148417,-0.0213 0.2963333,0 0.0814917,0.0213 0.014817,0.03872 -0.1481666,0.03872 -0.1629833,0 -0.2296583,-0.01743 -0.1481667,-0.03872 z M 207.0245,77.125225 c 3.71736,-0.0122 9.77526,-0.0122 13.462,3e-6 3.68673,0.01221 0.64526,0.02219 -6.75884,0.02219 -7.4041,-10e-7 -10.42053,-0.01 -6.70316,-0.02219 z M 22.377333,73.336386 c -2.2e-5,-1.909233 0.0111,-2.702359 0.02472,-1.762503 0.01362,0.939856 0.01363,2.501956 4e-5,3.471333 -0.01359,0.969377 -0.02473,0.200403 -0.02476,-1.70883 z m 1.354667,0 c -2.2e-5,-1.909233 0.0111,-2.702359 0.02472,-1.762503 0.01362,0.939856 0.01363,2.501956 4e-5,3.471333 -0.01359,0.969377 -0.02473,0.200403 -0.02475,-1.70883 z m 174.22593,-2.687974 -0.0206,-6.159306 -18.26683,-0.02155 -18.26684,-0.02155 18.26949,-0.02097 c 14.55308,-0.01671 18.27772,5.92e-4 18.30991,0.08486 0.0222,0.05821 0.0303,2.849033 0.0179,6.201833 l -0.0225,6.096 z M 7.9520199,66.217331 c 0.00406,-0.09863 0.024125,-0.118694 0.051152,-0.05115 0.024458,0.06112 0.02145,0.134144 -0.00668,0.162278 -0.028134,0.02813 -0.048145,-0.02187 -0.044469,-0.111125 z m -19.8610169,-1.728611 -8.297333,-0.04359 8.271169,-0.02054 c 5.445048,-0.01352 8.2890495,0.0084 8.323497,0.06413 0.02878,0.04657 0.040554,0.07542 0.026164,0.06413 -0.01439,-0.0113 -3.7599636,-0.04015 -8.323497,-0.06413 z m 12.81133359,-0.0634 c 0.85286681,-0.01382 2.22446671,-0.0138 3.04799991,5e-5 0.8235323,0.01385 0.1257325,0.02516 -1.5506674,0.02513 -1.67639996,-2.8e-5 -2.35020012,-0.01136 -1.49733251,-0.02518 z m 44.79014941,-1e-4 c 20.830784,-0.01174 54.892184,-0.01174 75.691994,0 20.79982,0.01175 3.75645,0.02135 -37.874148,0.02135 -41.630598,0 -58.648629,-0.0096 -37.817846,-0.02135 z m 161.332014,5e-6 c 3.71736,-0.0122 9.77526,-0.0122 13.462,3e-6 3.68673,0.01221 0.64526,0.02219 -6.75884,0.02219 -7.4041,-10e-7 -10.42053,-0.01 -6.70316,-0.02219 z m -9.04607,-11.451172 c 0,-6.123517 0.0101,-8.628592 0.0224,-5.566833 0.0123,3.061758 0.0123,8.071908 0,11.133666 -0.0123,3.061759 -0.0224,0.556684 -0.0224,-5.566833 z"
         id="path122" />
      <path
         style="display:inline;fill:#f2f2f2;fill-opacity:1;stroke-width:0.0846667;stroke:#cccccc;stroke-opacity:1"
         d="m 159.07533,234.54172 c 0.10936,-0.11642 0.2179,-0.21167 0.24118,-0.21167 0.0233,0 -0.0471,0.0952 -0.15651,0.21167 -0.10937,0.11641 -0.2179,0.21166 -0.24119,0.21166 -0.0233,0 0.0472,-0.0952 0.15652,-0.21166 z m 2.32082,-7.66234 c 0,-0.81491 0.0127,-1.14829 0.0282,-0.74083 0.0155,0.40746 0.0155,1.07421 0,1.48167 -0.0155,0.40746 -0.0282,0.0741 -0.0282,-0.74084 z m 0.005,-8.001 c 1e-5,-3.39936 0.0105,-4.77768 0.0233,-3.06292 0.0128,1.71475 0.0128,4.49605 -2e-5,6.18066 -0.0128,1.68462 -0.0233,0.28163 -0.0233,-3.11774 z m -167.6801539,1.36503 c 0,-0.0176 0.066675,-0.0842 0.1481667,-0.14816 0.1342864,-0.10531 0.137281,-0.10232 0.031967,0.032 -0.110606,0.14103 -0.1801334,0.18588 -0.1801334,0.11619 z m 7.7469997,-2.93136 c 0.1818843,-0.18627 0.3497495,-0.33867 0.3730328,-0.33867 0.023283,0 -0.1064818,0.1524 -0.2883662,0.33867 -0.1818843,0.18627 -0.3497495,0.33867 -0.3730328,0.33867 -0.023283,0 0.1064819,-0.1524 0.2883662,-0.33867 z M 161.4015,206.17838 c 0,-3.39936 0.0105,-4.77768 0.0233,-3.06292 0.0128,1.71475 0.0128,4.49605 -1e-5,6.18066 -0.0128,1.68462 -0.0233,0.28163 -0.0233,-3.11774 z M 2.8720202,201.00666 c 0.00406,-0.0986 0.024125,-0.11869 0.051152,-0.0512 0.024458,0.0611 0.02145,0.13414 -0.00668,0.16228 -0.028134,0.0281 -0.048145,-0.0219 -0.044469,-0.11113 z M 161.4015,193.47838 c 0,-3.39936 0.0105,-4.77768 0.0233,-3.06292 0.0128,1.71475 0.0128,4.49605 -1e-5,6.18066 -0.0128,1.68462 -0.0233,0.28163 -0.0233,-3.11774 z m -0.004,-8.255 c 0,-0.95461 0.0123,-1.34514 0.0274,-0.86783 0.0151,0.47731 0.0151,1.25836 0,1.73567 -0.0151,0.47731 -0.0274,0.0868 -0.0274,-0.86784 z m -56.61089,-7.76743 c 0.29286,-0.0166 0.75006,-0.0164 1.016,0 0.26593,0.0167 0.0263,0.0303 -0.53249,0.0301 -0.5588,0 -0.77638,-0.0139 -0.48351,-0.0305 z m -4.82403,-0.0797 c 0.06112,-0.0245 0.13415,-0.0215 0.16228,0.007 0.0281,0.0281 -0.0219,0.0481 -0.11112,0.0445 -0.09864,-0.004 -0.118699,-0.0241 -0.05116,-0.0512 z m 10.414,0 c 0.0611,-0.0245 0.13415,-0.0215 0.16228,0.007 0.0281,0.0281 -0.0219,0.0481 -0.11113,0.0445 -0.0986,-0.004 -0.11869,-0.0241 -0.0511,-0.0512 z m 11.06491,-3.75217 c 0.0843,-0.0931 0.17229,-0.16933 0.19558,-0.16933 0.0233,0 -0.0266,0.0762 -0.11092,0.16933 -0.0843,0.0931 -0.17229,0.16933 -0.19558,0.16933 -0.0233,0 0.0266,-0.0762 0.11092,-0.16933 z m 27.23683,-0.46567 c 0.002,-0.1397 0.0207,-0.18659 0.0422,-0.10422 0.0215,0.0824 0.0201,0.19668 -0.003,0.254 -0.0232,0.0573 -0.0408,-0.0101 -0.039,-0.14978 z m -14.0578,-0.0423 c 0,-0.11642 0.0192,-0.16404 0.0427,-0.10583 0.0235,0.0582 0.0235,0.15346 0,0.21166 -0.0235,0.0582 -0.0427,0.0106 -0.0427,-0.10583 z m 11.84665,-1.82738 c 0.004,-0.0986 0.0241,-0.1187 0.0512,-0.0512 0.0245,0.0611 0.0215,0.13415 -0.007,0.16228 -0.0281,0.0281 -0.0482,-0.0219 -0.0445,-0.11112 z m -23.30589,-6.78179 c 0.0611,-0.0245 0.13415,-0.0214 0.16228,0.007 0.0281,0.0281 -0.0219,0.0482 -0.11113,0.0445 -0.0986,-0.004 -0.11869,-0.0241 -0.0511,-0.0512 z m 25.52764,-10.0175 c 0,-0.30268 0.0154,-0.4265 0.0341,-0.27516 0.0188,0.15134 0.0188,0.39899 0,0.55033 -0.0188,0.15134 -0.0341,0.0275 -0.0341,-0.27517 z m -14.73132,-1.05833 c 0,-0.32597 0.0157,-0.44894 0.034,-0.27328 0.0183,0.17567 0.018,0.44237 -8.5e-4,0.59267 -0.0187,0.1503 -0.0337,0.007 -0.0333,-0.31939 z m -65.236985,-0.18483 c 0.06112,-0.0245 0.134146,-0.0215 0.16228,0.007 0.02813,0.0281 -0.02188,0.0481 -0.111125,0.0445 -0.09864,-0.004 -0.118694,-0.0241 -0.05116,-0.0512 z m -15.399866,-0.25967 -0.205259,-0.23283 0.232834,0.20526 c 0.128058,0.11289 0.232833,0.21766 0.232833,0.23283 0,0.0664 -0.06856,0.0124 -0.260408,-0.20526 z m 83.518261,-0.52917 c 0,-0.44238 0.0143,-0.62335 0.0317,-0.40216 0.0174,0.22119 0.0174,0.58314 0,0.80433 -0.0174,0.22119 -0.0317,0.0402 -0.0317,-0.40217 z m 15.06638,-1.48166 c 8.5e-4,-0.2794 0.0163,-0.38349 0.0351,-0.23132 0.0188,0.15218 0.0185,0.38078 -8.5e-4,0.508 -0.0193,0.12723 -0.0347,0.003 -0.0342,-0.27668 z M -0.20284361,113.11217 c 0.10531771,-0.0203 0.2577177,-0.0195 0.33866665,0.002 0.0809489,0.0212 -0.005224,0.0378 -0.1914872,0.0368 -0.18626666,-9.4e-4 -0.25249716,-0.0183 -0.14717945,-0.0385 z M 184.57964,91.412719 c 0,-0.162983 0.0174,-0.229658 0.0387,-0.148167 0.0213,0.08149 0.0213,0.214842 0,0.296334 -0.0213,0.08149 -0.0387,0.01482 -0.0387,-0.148167 z m -190.6043039,-9.3453 c 0,-0.01758 0.066675,-0.08426 0.1481666,-0.148167 0.1342864,-0.105314 0.1372811,-0.102319 0.031967,0.03197 -0.110606,0.141034 -0.1801334,0.185884 -0.1801334,0.1162 z"
         id="path120" />
      <path
         style="display:inline;fill:#f2f2f2;fill-opacity:1;stroke-width:0.0846667;stroke:#cccccc;stroke-opacity:1"
         d="m 227.52817,151.10272 c 0,-47.75412 0.01,-67.289892 0.0213,-43.41283 0.0117,23.87705 0.0117,62.9486 0,86.82566 -0.0117,23.87706 -0.0213,4.34128 -0.0213,-43.41283 z m -0.34068,80.47566 c 1e-5,-3.39936 0.0105,-4.77768 0.0233,-3.06292 0.0128,1.71475 0.0128,4.49605 -2e-5,6.18066 -0.0128,1.68462 -0.0233,0.28163 -0.0233,-3.11774 z M 28.011335,228.10705 c 0.157969,-0.16298 0.306267,-0.29633 0.32955,-0.29633 0.02328,0 -0.08691,0.13335 -0.244884,0.29633 -0.157969,0.16298 -0.306267,0.29633 -0.32955,0.29633 -0.02328,0 0.08691,-0.13335 0.244884,-0.29633 z m 199.176155,-9.22867 c 1e-5,-3.39936 0.0105,-4.77768 0.0233,-3.06292 0.0128,1.71475 0.0128,4.49605 -2e-5,6.18066 -0.0128,1.68462 -0.0233,0.28163 -0.0233,-3.11774 z m -232.2808206,0.1797 c 0,-0.0176 0.066675,-0.0842 0.1481666,-0.14817 0.1342864,-0.1053 0.1372811,-0.10232 0.031967,0.032 -0.110606,0.14103 -0.1801334,0.18589 -0.1801334,0.1162 z M 227.18749,206.17838 c 1e-5,-3.39936 0.0105,-4.77768 0.0233,-3.06292 0.0128,1.71475 0.0128,4.49605 -2e-5,6.18066 -0.0128,1.68462 -0.0233,0.28163 -0.0233,-3.11774 z M 2.8720202,201.26066 c 0.00406,-0.0986 0.024125,-0.11869 0.051152,-0.0512 0.024458,0.0611 0.02145,0.13414 -0.00668,0.16228 -0.028134,0.0281 -0.048145,-0.0219 -0.044469,-0.11113 z m 6.4346664,0 c 0.00406,-0.0986 0.024125,-0.11869 0.051152,-0.0512 0.024458,0.0611 0.02145,0.13414 -0.00668,0.16228 -0.028134,0.0281 -0.048145,-0.0219 -0.044469,-0.11113 z M 227.18749,193.47838 c 1e-5,-3.39936 0.0105,-4.77768 0.0233,-3.06292 0.0128,1.71475 0.0128,4.49605 -2e-5,6.18066 -0.0128,1.68462 -0.0233,0.28163 -0.0233,-3.11774 z m -238.75782,-2.159 c 0.08428,-0.0931 0.172295,-0.16933 0.195578,-0.16933 0.02328,0 -0.02663,0.0762 -0.110912,0.16933 -0.08428,0.0931 -0.172295,0.16934 -0.195578,0.16934 -0.02328,0 0.02663,-0.0762 0.110912,-0.16934 z m 238.75959,-40.21666 c 0,-19.72098 0.01,-27.78866 0.0216,-17.92817 0.0119,9.86049 0.0119,25.99584 0,35.85633 -0.0119,9.8605 -0.0216,1.79282 -0.0216,-17.92816 z m -76.46164,32.91416 -0.16129,-0.1905 0.1905,0.16129 c 0.10477,0.0887 0.1905,0.17443 0.1905,0.1905 0,0.0678 -0.0681,0.0177 -0.21971,-0.16129 z m -15.99396,-5.3975 c 0.0843,-0.0931 0.1723,-0.16933 0.19558,-0.16933 0.0233,0 -0.0266,0.0762 -0.11091,0.16933 -0.0843,0.0931 -0.1723,0.16934 -0.19558,0.16934 -0.0233,0 0.0266,-0.0762 0.11091,-0.16934 z m -31.38793,-1.16277 c 0.19915,-0.0179 0.50395,-0.0176 0.67734,8.5e-4 0.17339,0.0182 0.0105,0.0328 -0.36207,0.0325 -0.37253,0 -0.5144,-0.0152 -0.31527,-0.0331 z m 3.2151,0 c 0.19791,-0.0178 0.52176,-0.0178 0.71967,0 0.19791,0.0178 0.036,0.0324 -0.35984,0.0324 -0.39581,0 -0.55774,-0.0146 -0.35983,-0.0324 z m -6.852707,-0.0805 c 0.06112,-0.0245 0.134146,-0.0215 0.162281,0.007 0.02814,0.0281 -0.02188,0.0481 -0.111125,0.0445 -0.09864,-0.004 -0.118694,-0.0241 -0.05116,-0.0512 z M 121.06,174.01541 c 0,-0.0176 0.0667,-0.0842 0.14816,-0.14816 0.13429,-0.10531 0.13728,-0.10232 0.032,0.032 -0.1106,0.14103 -0.18013,0.18588 -0.18013,0.11619 z m 27.62439,-0.30669 c 0,-0.20955 0.0165,-0.29528 0.0367,-0.1905 0.0202,0.10477 0.0202,0.27622 0,0.381 -0.0202,0.10477 -0.0367,0.019 -0.0367,-0.1905 z m -14.06122,-0.21167 c 0.002,-0.1397 0.0207,-0.1866 0.0422,-0.10422 0.0215,0.0824 0.0201,0.19668 -0.003,0.254 -0.0232,0.0573 -0.0407,-0.0101 -0.039,-0.14978 z m -12.97051,-0.0743 c 0,-0.0176 0.0667,-0.0842 0.14817,-0.14817 0.13429,-0.10531 0.13728,-0.10232 0.032,0.032 -0.11061,0.14103 -0.18014,0.18589 -0.18014,0.1162 z m 12.97051,-0.6877 c 0.002,-0.1397 0.0207,-0.1866 0.0422,-0.10422 0.0215,0.0824 0.0201,0.19668 -0.003,0.254 -0.0232,0.0573 -0.0407,-0.0101 -0.039,-0.14978 z m 14.05951,-0.0847 c 9.3e-4,-0.18626 0.0183,-0.2525 0.0385,-0.14717 0.0203,0.10532 0.0195,0.25772 -0.002,0.33866 -0.0212,0.081 -0.0378,-0.005 -0.0368,-0.19149 z m -14.73685,-18.45733 c 0.002,-0.1397 0.0207,-0.1866 0.0422,-0.10422 0.0215,0.0824 0.0201,0.19668 -0.003,0.254 -0.0232,0.0573 -0.0408,-0.0101 -0.039,-0.14978 z m -68.527705,-0.86217 c 0.06112,-0.0245 0.134146,-0.0215 0.16228,0.007 0.02814,0.0281 -0.02188,0.0481 -0.111125,0.0445 -0.09864,-0.004 -0.118694,-0.0241 -0.05115,-0.0512 z m -4.148667,-0.0847 c 0.06112,-0.0245 0.134145,-0.0215 0.162278,0.007 0.02813,0.0281 -0.02187,0.0481 -0.111125,0.0445 -0.09863,-0.004 -0.118694,-0.0241 -0.05115,-0.0512 z m 72.236542,-1.9214 c 0,-0.0176 0.0667,-0.0842 0.14816,-0.14817 0.13429,-0.10531 0.13728,-0.10232 0.032,0.032 -0.1106,0.14103 -0.18013,0.18589 -0.18013,0.1162 z M -0.54249747,131.14998 c 0.0582083,-0.0235 0.15345832,-0.0235 0.21166665,0 0.0582083,0.0235 0.0105833,0.0427 -0.10583333,0.0427 -0.11641666,0 -0.16404166,-0.0192 -0.10583332,-0.0427 z m -3.21733323,-1.94734 c 0.058208,-0.0235 0.1534583,-0.0235 0.2116667,0 0.058208,0.0235 0.010583,0.0427 -0.1058333,0.0427 -0.1164167,0 -0.1640417,-0.0192 -0.1058334,-0.0427 z M 7.69802,125.06067 c 0.00406,-0.0986 0.024125,-0.1187 0.051152,-0.0512 0.024458,0.0611 0.02145,0.13415 -0.00668,0.16228 -0.028134,0.0281 -0.048145,-0.0219 -0.044469,-0.11112 z m 72.405639,-9.15537 c 0.128702,-0.0195 0.319202,-0.0189 0.423334,0.001 0.10414,0.0201 -0.0012,0.036 -0.233994,0.0354 -0.232833,-6.8e-4 -0.318033,-0.0171 -0.18934,-0.0365 z m 147.083831,-7.17825 c 1e-5,-3.39936 0.0105,-4.77768 0.0233,-3.06293 0.0128,1.71476 0.0128,4.49606 -2e-5,6.18067 -0.0128,1.68461 -0.0233,0.28163 -0.0233,-3.11774 z m -227.72469581,4.38717 c 0.0611183,-0.0245 0.13414332,-0.0215 0.16227806,0.007 0.0281339,0.0281 -0.0218728,0.0481 -0.111125,0.0445 -0.0986324,-0.004 -0.1186942,-0.0241 -0.0511531,-0.0512 z m 0.84137497,0.002 c 0.0582083,-0.0235 0.15345833,-0.0235 0.21166666,0 0.0582083,0.0235 0.0105833,0.0427 -0.10583333,0.0427 -0.11641666,0 -0.16404166,-0.0192 -0.10583333,-0.0427 z M 227.18749,96.027052 c 1e-5,-3.399366 0.0105,-4.777684 0.0233,-3.062927 0.0128,1.714757 0.0128,4.496057 -2e-5,6.180666 -0.0128,1.684609 -0.0233,0.281628 -0.0233,-3.117739 z m 0,-12.699999 c 1e-5,-3.399367 0.0105,-4.777685 0.0233,-3.062928 0.0128,1.714757 0.0128,4.496057 -2e-5,6.180667 -0.0128,1.68461 -0.0233,0.281627 -0.0233,-3.117739 z M -5.3473306,81.379719 c 0.2529349,-0.256116 0.4789322,-0.465666 0.5022155,-0.465666 0.023283,0 -0.164614,0.20955 -0.4175489,0.465666 -0.2529348,0.256117 -0.4789322,0.465667 -0.5022155,0.465667 -0.023283,0 0.164614,-0.20955 0.4175489,-0.465667 z M 227.18749,70.627053 c 1e-5,-3.399367 0.0105,-4.777684 0.0233,-3.062928 0.0128,1.714758 0.0128,4.496058 -2e-5,6.180667 -0.0128,1.68461 -0.0233,0.281627 -0.0233,-3.117739 z M 7.9520199,65.793998 c 0.00406,-0.09863 0.024125,-0.118695 0.051152,-0.05115 0.024458,0.06112 0.02145,0.134145 -0.00668,0.162279 -0.028134,0.02813 -0.048145,-0.02187 -0.044469,-0.111125 z M 0.62166915,62.626053 c 0.0842848,-0.09313 0.17229496,-0.169333 0.19557829,-0.169333 0.0232833,0 -0.0266268,0.0762 -0.11091163,0.169333 -0.0842848,0.09313 -0.17229497,0.169333 -0.1955783,0.169333 -0.0232833,0 0.0266268,-0.0762 0.11091164,-0.169333 z"
         id="path118" />
      <path
         style="display:inline;fill:#f2f2f2;fill-opacity:1;stroke-width:0.0846667;stroke:#cccccc;stroke-opacity:1"
         d="m 22.743073,205.56595 c 0.199139,-0.0179 0.503939,-0.0176 0.677333,8.4e-4 0.173394,0.0182 0.01046,0.0328 -0.362071,0.0325 -0.372533,0 -0.514402,-0.0152 -0.315262,-0.0331 z m -6.483899,-0.23423 c 0.0017,-0.1397 0.0207,-0.1866 0.04217,-0.10423 0.02147,0.0824 0.02005,0.19668 -0.0031,0.254 -0.02319,0.0573 -0.04076,-0.0101 -0.03903,-0.14977 z m -21.521838,-2.69897 c 0,-0.0176 0.066675,-0.0842 0.1481667,-0.14817 0.1342864,-0.10531 0.1372811,-0.10232 0.031967,0.032 -0.110606,0.14103 -0.1801335,0.18589 -0.1801335,0.1162 z m 14.5823088,-1.74603 c 0,-0.16299 0.017424,-0.22966 0.038721,-0.14817 0.021295,0.0815 0.021295,0.21484 0,0.29633 -0.021296,0.0815 -0.038721,0.0148 -0.038721,-0.14816 z m -0.08125,-1.60867 c 0,-0.20955 0.016512,-0.29527 0.036692,-0.1905 0.020181,0.10478 0.020181,0.27623 0,0.381 -0.02018,0.10478 -0.036692,0.019 -0.036692,-0.1905 z m -13.2960833,0 c 0,-0.16298 0.017424,-0.22966 0.038721,-0.14817 0.021295,0.0815 0.021295,0.21485 0,0.29634 -0.021296,0.0815 -0.038721,0.0148 -0.038721,-0.14817 z m 20.3168615,-5.12233 c 0.0017,-0.1397 0.0207,-0.1866 0.04217,-0.10423 0.02147,0.0824 0.02005,0.19668 -0.0031,0.254 -0.02319,0.0573 -0.04076,-0.0101 -0.03903,-0.14977 z m -19.6750459,-6.6195 c 0.061118,-0.0245 0.1341434,-0.0215 0.1622781,0.007 0.028134,0.0281 -0.021873,0.0481 -0.111125,0.0445 -0.098632,-0.004 -0.1186942,-0.0241 -0.051153,-0.0512 z m 0.8466667,0 c 0.061118,-0.0245 0.1341433,-0.0215 0.162278,0.007 0.028134,0.0281 -0.021873,0.0481 -0.111125,0.0445 -0.098632,-0.004 -0.1186942,-0.0241 -0.051153,-0.0512 z M 159.77735,183.46719 c 0.31627,-0.0163 0.81157,-0.0162 1.10067,0 0.2891,0.0165 0.0303,0.0298 -0.57502,0.0297 -0.60537,0 -0.84191,-0.0136 -0.52565,-0.03 z m -57.28052,-6.00822 c 0.10478,-0.0202 0.27623,-0.0202 0.381,0 0.10478,0.0202 0.019,0.0367 -0.1905,0.0367 -0.20955,0 -0.29527,-0.0165 -0.1905,-0.0367 z m 5.24933,0 c 0.10478,-0.0202 0.27623,-0.0202 0.381,0 0.10478,0.0202 0.019,0.0367 -0.1905,0.0367 -0.20955,0 -0.29527,-0.0165 -0.1905,-0.0367 z m 40.92854,-3.24225 c 0,-0.11642 0.0192,-0.16404 0.0427,-0.10584 0.0235,0.0582 0.0235,0.15346 0,0.21167 -0.0235,0.0582 -0.0427,0.0106 -0.0427,-0.10583 z m -53.184035,-0.29634 c 0.109364,-0.11641 0.217898,-0.21166 0.241182,-0.21166 0.02328,0 -0.04715,0.0952 -0.156515,0.21166 -0.109364,0.11642 -0.217898,0.21167 -0.241181,0.21167 -0.02328,0 0.04715,-0.0952 0.156514,-0.21167 z m 39.122675,-1.53105 c 0.004,-0.0986 0.0241,-0.11869 0.0512,-0.0512 0.0245,0.0611 0.0214,0.13414 -0.007,0.16228 -0.0281,0.0281 -0.0482,-0.0219 -0.0445,-0.11113 z M 148.66801,172.22 c 0.004,-0.0986 0.0241,-0.1187 0.0512,-0.0512 0.0245,0.0611 0.0215,0.13415 -0.007,0.16228 -0.0281,0.0281 -0.0481,-0.0219 -0.0445,-0.11112 z m -14.732,-17.69533 c 0.004,-0.0986 0.0241,-0.1187 0.0512,-0.0512 0.0245,0.0611 0.0215,0.13415 -0.007,0.16228 -0.0281,0.0281 -0.0481,-0.0219 -0.0445,-0.11112 z m -69.66362,-1.19829 c 0.222597,-0.0175 0.565497,-0.0173 0.762,8.4e-4 0.196503,0.0178 0.01438,0.0321 -0.404723,0.0318 -0.4191,0 -0.579876,-0.0148 -0.357277,-0.0323 z m 1.561888,0.001 c 0.150301,-0.0187 0.417001,-0.019 0.592667,-8.5e-4 0.175666,0.0183 0.05269,0.0336 -0.273278,0.034 -0.325967,0 -0.469689,-0.0146 -0.319389,-0.0333 z m 3.30918,-0.0814 c 0.06112,-0.0245 0.134146,-0.0215 0.162281,0.007 0.02813,0.0281 -0.02188,0.0481 -0.111125,0.0445 -0.09864,-0.004 -0.118695,-0.0241 -0.05116,-0.0512 z m 64.320202,-3.2442 c 0.18188,-0.18627 0.34975,-0.33867 0.37304,-0.33867 0.0233,0 -0.10649,0.1524 -0.28837,0.33867 -0.18188,0.18627 -0.34975,0.33867 -0.37303,0.33867 -0.0233,0 0.10648,-0.1524 0.28836,-0.33867 z M 50.962685,146.9044 c 0.0041,-0.0986 0.02412,-0.1187 0.05115,-0.0512 0.02446,0.0611 0.02145,0.13415 -0.0067,0.16228 -0.02813,0.0281 -0.04814,-0.0219 -0.04447,-0.11112 z m 10.195648,-19.59328 c 0.08429,-0.0931 0.172295,-0.16934 0.195579,-0.16934 0.02328,0 -0.02663,0.0762 -0.110912,0.16934 -0.08429,0.0931 -0.172295,0.16933 -0.195578,0.16933 -0.02328,0 0.02663,-0.0762 0.110911,-0.16933 z m -69.5402955,-1.524 c 0,-0.11642 0.019218,-0.16405 0.042705,-0.10584 0.023487,0.0582 0.023487,0.15346 0,0.21167 -0.023487,0.0582 -0.042705,0.0106 -0.042705,-0.10583 z m 71.6992955,-0.62464 c 0,-0.0176 0.06668,-0.0842 0.148167,-0.14817 0.134286,-0.10531 0.137281,-0.10232 0.03197,0.032 -0.110606,0.14103 -0.180134,0.18589 -0.180134,0.1162 z m -62.89396249,-0.3067 c 0,-0.11641 0.0192176,-0.16404 0.042705,-0.10583 0.0234874,0.0582 0.0234874,0.15346 0,0.21167 -0.0234874,0.0582 -0.042705,0.0106 -0.042705,-0.10584 z m 7.29506429,-0.42333 c 0,-0.30268 0.015367,-0.42651 0.034149,-0.27517 0.018781,0.15134 0.018781,0.39899 0,0.55034 -0.018782,0.15134 -0.034149,0.0275 -0.034149,-0.27517 z M -9.4221305,110.73789 c -0.1053144,-0.13429 -0.1023197,-0.13729 0.031967,-0.032 0.081492,0.0639 0.1481667,0.13058 0.1481667,0.14817 0,0.0697 -0.069527,0.0248 -0.1801334,-0.1162 z m 16.9441327,-0.0477 c 0,-0.0146 0.123825,-0.1384 0.2751667,-0.27517 l 0.2751666,-0.24867 -0.2486736,0.27516 c -0.2317987,0.2565 -0.3016597,0.31409 -0.3016597,0.24868 z m -18.0447992,-1.05301 c -0.105314,-0.13429 -0.10232,-0.13728 0.03197,-0.032 0.141033,0.11061 0.185884,0.18014 0.1162,0.18014 -0.01758,0 -0.08426,-0.0667 -0.148167,-0.14817 z m 8.5513328,-2.37067 c -0.1053143,-0.13428 -0.1023196,-0.13728 0.031967,-0.032 0.081492,0.0639 0.1481666,0.13058 0.1481666,0.14816 0,0.0697 -0.069527,0.0248 -0.1801334,-0.1162 z M -11.267313,103.64 c 0.0041,-0.0986 0.02412,-0.1187 0.05115,-0.0512 0.02446,0.0611 0.02145,0.13415 -0.0067,0.16228 -0.02813,0.0281 -0.04814,-0.0219 -0.04447,-0.11112 z m 24.151781,-0.45861 c 0,-0.34925 0.01494,-0.49213 0.03321,-0.3175 0.01827,0.17462 0.01827,0.46037 0,0.635 -0.01827,0.17462 -0.03321,0.0318 -0.03321,-0.3175 z m -3.3808434,-8.487838 -0.1612891,-0.1905 0.1905,0.161289 c 0.1790225,0.151572 0.2290436,0.219711 0.1612891,0.219711 -0.016066,0 -0.1017913,-0.08572 -0.1905,-0.1905 z M 196.90545,83.226883 c 0.0611,-0.02446 0.13415,-0.02145 0.16228,0.0067 0.0281,0.02813 -0.0219,0.04814 -0.11112,0.04447 -0.0986,-0.0041 -0.1187,-0.02412 -0.0512,-0.05115 z M -4.7123306,80.744719 c 0.084285,-0.09313 0.1722949,-0.169333 0.1955783,-0.169333 0.023283,0 -0.026627,0.0762 -0.1109117,0.169333 -0.084285,0.09313 -0.1722949,0.169334 -0.1955783,0.169334 -0.023283,0 0.026627,-0.0762 0.1109117,-0.169334 z m 2.6736843,-8.770055 c 0.00406,-0.09863 0.024125,-0.118694 0.051152,-0.05115 0.024458,0.06112 0.02145,0.134144 -0.00668,0.162278 -0.028135,0.02813 -0.048145,-0.02187 -0.044469,-0.111125 z"
         id="path116" />
      <path
         style="display:inline;fill:#f2f2f2;fill-opacity:1;stroke-width:0.0846667;stroke:#cccccc;stroke-opacity:1"
         d="m -20.362582,238.07655 c -0.0354,-0.0573 81.724277,-0.0573 202.848242,0 24.68033,0.0117 -10.85519,0.0307 -78.96783,0.0423 -68.112642,0.0117 -123.858827,-0.007 -123.880412,-0.0423 z m 170.701372,-0.587 c 0.0611,-0.0245 0.13414,-0.0215 0.16228,0.007 0.0281,0.0281 -0.0219,0.0481 -0.11113,0.0445 -0.0986,-0.004 -0.11869,-0.0241 -0.0512,-0.0511 z M -18.316691,225.37662 c 1.085869,-0.0134 2.838468,-0.0134 3.894667,2e-5 1.056198,0.0134 0.16776,0.0244 -1.974306,0.0244 -2.142067,-2e-5 -3.006229,-0.011 -1.920361,-0.0244 z m 16.6802562,-7e-5 c 4.4391765,-0.0121 11.6781758,-0.0121 16.0866658,1e-5 4.408491,0.0121 0.776438,0.022 -8.0712288,0.022 -8.8476663,0 -12.4546126,-0.01 -8.015437,-0.022 z m 26.1976028,0 c 0.454025,-0.0152 1.196975,-0.0152 1.651,0 0.454025,0.0152 0.08255,0.0277 -0.8255,0.0277 -0.90805,0 -1.279525,-0.0125 -0.8255,-0.0277 z m 36.498301,0 c 17.035592,-0.0118 44.886691,-0.0118 61.891331,0 17.00464,0.0118 3.06643,0.0214 -30.973801,0.0214 -34.040232,0 -47.953121,-0.01 -30.91753,-0.0214 z m 116.790691,0 c 9.04558,-0.0119 23.84743,-0.0119 32.893,0 9.04558,0.0119 1.64465,0.0216 -16.4465,0.0216 -18.09115,0 -25.49207,-0.01 -16.4465,-0.0216 z m -20.39937,-0.41767 c 0.0611,-0.0245 0.13414,-0.0214 0.16228,0.007 0.0281,0.0281 -0.0219,0.0481 -0.11113,0.0445 -0.0986,-0.004 -0.11869,-0.0241 -0.0511,-0.0512 z m 1.7298,-6.14395 -0.0206,-6.07478 -67.712168,-0.0213 -67.712164,-0.0213 67.714823,-0.0211 c 54.109419,-0.0169 67.722939,0 67.755239,0.0847 0.0222,0.0582 0.0303,2.81093 0.0179,6.11716 l -0.0225,6.01134 z m -135.317922,3.71448 c 0,-0.0176 0.06668,-0.0843 0.148167,-0.14816 0.134286,-0.10531 0.137281,-0.10232 0.03197,0.032 -0.110606,0.14103 -0.180134,0.18588 -0.180134,0.11619 z m -30.4799986,-1.94733 c 0,-0.0176 0.066675,-0.0842 0.1481667,-0.14817 0.1342864,-0.1053 0.1372811,-0.10232 0.031967,0.032 -0.1106059,0.14103 -0.1801334,0.18589 -0.1801334,0.1162 z m 33.7661236,-0.53387 c 0.06112,-0.0245 0.134144,-0.0215 0.162278,0.007 0.02813,0.0281 -0.02187,0.0481 -0.111125,0.0445 -0.09863,-0.004 -0.118694,-0.0241 -0.05115,-0.0512 z m -37.491457,-7.30816 -9.948333,-0.0434 9.9695,-0.0206 c 6.60365,-0.0137 9.96949952,0.008 9.96949952,0.064 0,0.0466 -0.009525,0.0754 -0.0211667,0.064 -0.0116417,-0.0114 -4.49791642,-0.0402 -9.96949982,-0.064 z m 19.8819604,-0.0635 c 2.3900946,-0.0125 6.2762946,-0.0125 8.6359996,0 2.359705,0.0125 0.404172,0.0227 -4.345627,0.0227 -4.7498002,-1e-5 -6.6804677,-0.0102 -4.2903726,-0.0227 z m 168.3108636,-2e-5 c 9.04558,-0.0119 23.84743,-0.0119 32.893,0 9.04558,0.0119 1.64465,0.0216 -16.4465,0.0216 -18.09115,0 -25.49207,-0.01 -16.4465,-0.0216 z m -18.66956,-6.47695 -0.0206,-6.15946 -74.951168,-0.0213 -74.9511632,-0.0213 74.9538222,-0.0211 c 59.900629,-0.0169 74.961929,0 74.994229,0.0847 0.0222,0.0582 0.0303,2.84903 0.0179,6.20183 l -0.0225,6.096 z m -145.753098,-3.6756 c 0.05821,-0.0235 0.153458,-0.0235 0.211667,0 0.05821,0.0235 0.01058,0.0427 -0.105834,0.0427 -0.116416,0 -0.164041,-0.0192 -0.105833,-0.0427 z m -32.083092,-2.54734 c 0.899473,-0.0137 2.347273,-0.0137 3.217333,5e-5 0.87006,0.0138 0.134127,0.025 -1.635406,0.025 -1.769534,-2e-5 -2.481401,-0.0113 -1.581927,-0.025 z m 16.3407924,-1e-5 c 0.9926759,-0.0136 2.59287588,-0.0135 3.5559998,3e-5 0.9631231,0.0136 0.1509336,0.0247 -1.80486634,0.0246 -1.95579996,-2e-5 -2.74381036,-0.0111 -1.75113346,-0.0247 z m 180.1649576,-8e-5 c 9.04558,-0.0119 23.84743,-0.0119 32.893,0 9.04558,0.0119 1.64465,0.0216 -16.4465,0.0216 -18.09115,0 -25.49207,-0.01 -16.4465,-0.0216 z m -18.66956,-6.47696 -0.0206,-6.15946 -89.7255,-0.0212 -89.725497,-0.0212 89.728155,-0.0211 c 71.720102,-0.0169 89.736262,0 89.768562,0.0847 0.0222,0.0582 0.0303,2.84903 0.0179,6.20183 l -0.0225,6.096 z M 13.427502,191.26331 c 0.05821,-0.0235 0.153458,-0.0235 0.211667,0 0.05821,0.0235 0.01058,0.0427 -0.105834,0.0427 -0.116416,0 -0.164041,-0.0192 -0.105833,-0.0427 z m -12.8985437,-0.47309 -0.16128914,-0.1905 0.19049999,0.16129 c 0.10477499,0.0887 0.19049999,0.17443 0.19049999,0.1905 0,0.0677 -0.0681389,0.0177 -0.21971084,-0.16129 z m 4.9502439,0.0423 c -0.1053143,-0.13429 -0.1023197,-0.13728 0.031967,-0.032 0.081492,0.0639 0.1481667,0.13059 0.1481667,0.14817 0,0.0697 -0.069527,0.0248 -0.1801334,-0.1162 z m -8.5607124,-3.29838 c 0.1053178,-0.0203 0.2577177,-0.0195 0.3386667,0.002 0.080949,0.0212 -0.00522,0.0378 -0.1914872,0.0368 -0.1862667,-9.3e-4 -0.2524972,-0.0183 -0.1471795,-0.0385 z M 177.85016,187.27655 c 9.04558,-0.0119 23.84743,-0.0119 32.893,0 9.04558,0.0119 1.64465,0.0216 -16.4465,0.0216 -18.09115,0 -25.49207,-0.01 -16.4465,-0.0216 z m -18.65445,-2.05317 c 0,-0.95461 0.0123,-1.34514 0.0274,-0.86783 0.0151,0.47731 0.0151,1.25836 0,1.73567 -0.0151,0.47731 -0.0274,0.0868 -0.0274,-0.86784 z m -55.16959,-5.39183 c 0.0611,-0.0245 0.13415,-0.0215 0.16228,0.007 0.0281,0.0281 -0.0219,0.0481 -0.11112,0.0445 -0.0986,-0.004 -0.1187,-0.0241 -0.0512,-0.0512 z m 4.91067,0 c 0.0611,-0.0245 0.13415,-0.0215 0.16228,0.007 0.0281,0.0281 -0.0219,0.0481 -0.11112,0.0445 -0.0986,-0.004 -0.1187,-0.0241 -0.0512,-0.0512 z m -7.03163,-2.37272 c 0.10531,-0.0203 0.25771,-0.0195 0.33866,0.002 0.0809,0.0212 -0.005,0.0378 -0.19149,0.0368 -0.18626,-9.3e-4 -0.2525,-0.0183 -0.14717,-0.0385 z m 6.47761,0.001 c 0.0824,-0.0215 0.19668,-0.0201 0.254,0.003 0.0573,0.0232 -0.0101,0.0407 -0.14977,0.039 -0.1397,-0.002 -0.1866,-0.0207 -0.10423,-0.0422 z m 40.28524,-2.95405 c 0.004,-0.0986 0.0241,-0.11869 0.0512,-0.0511 0.0245,0.0611 0.0215,0.13414 -0.007,0.16228 -0.0281,0.0281 -0.0481,-0.0219 -0.0445,-0.11113 z m -14.05467,-2.37066 c 0.004,-0.0986 0.0241,-0.1187 0.0512,-0.0512 0.0245,0.0611 0.0214,0.13415 -0.007,0.16228 -0.0281,0.0281 -0.0482,-0.0219 -0.0445,-0.11112 z m 14.05467,-0.16934 c 0.004,-0.0986 0.0241,-0.11869 0.0512,-0.0512 0.0245,0.0611 0.0215,0.13414 -0.007,0.16228 -0.0281,0.0281 -0.0481,-0.0219 -0.0445,-0.11113 z m -14.732,-17.18733 c 0.004,-0.0986 0.0241,-0.11869 0.0512,-0.0512 0.0245,0.0611 0.0215,0.13415 -0.007,0.16228 -0.0281,0.0281 -0.0481,-0.0219 -0.0445,-0.11112 z m -70.469523,-1.44983 c 0.105318,-0.0203 0.257718,-0.0195 0.338667,0.002 0.08095,0.0212 -0.0052,0.0378 -0.191487,0.0368 -0.186267,-9.3e-4 -0.252498,-0.0183 -0.14718,-0.0385 z m 3.343346,0.002 c 0.08149,-0.0213 0.214842,-0.0213 0.296333,0 0.08149,0.0213 0.01482,0.0387 -0.148166,0.0387 -0.162984,0 -0.229659,-0.0174 -0.148167,-0.0387 z m 81.258827,-0.57661 c 0.10937,-0.11642 0.2179,-0.21167 0.24118,-0.21167 0.0233,0 -0.0472,0.0953 -0.15651,0.21167 -0.10936,0.11641 -0.2179,0.21166 -0.24118,0.21166 -0.0233,0 0.0472,-0.0953 0.15651,-0.21166 z m -97.086424,-6.43467 c 5.08e-4,-0.2794 0.01628,-0.38349 0.03513,-0.23132 0.01884,0.15218 0.01845,0.38078 -8.64e-4,0.508 -0.01932,0.12723 -0.03474,0.003 -0.03426,-0.27668 z M 5.5746689,130.65572 c 0.1093682,-0.11642 0.2179007,-0.21167 0.241184,-0.21167 0.023283,0 -0.047149,0.0952 -0.1565173,0.21167 -0.1093682,0.11642 -0.2179007,0.21167 -0.241184,0.21167 -0.023283,0 0.047149,-0.0952 0.1565173,-0.21167 z m -12.0290746,-0.4445 -0.2052582,-0.23283 0.2328333,0.20525 c 0.2176179,0.19185 0.2716606,0.26041 0.2052583,0.26041 -0.015166,0 -0.1199405,-0.10477 -0.2328334,-0.23283 z M 60.1,128.46475 c 0,-0.0176 0.06667,-0.0842 0.148167,-0.14817 0.134286,-0.10531 0.137281,-0.10232 0.03197,0.032 -0.11061,0.141 -0.180137,0.18586 -0.180137,0.11617 z m 1.524,-1.61903 c 0.157969,-0.16298 0.306267,-0.29633 0.329551,-0.29633 0.02328,0 -0.08691,0.13335 -0.244884,0.29633 -0.15797,0.16298 -0.306268,0.29633 -0.329551,0.29633 -0.02328,0 0.08691,-0.13335 0.244884,-0.29633 z m 1.266462,-1.24883 c 0.350855,-0.37383 0.426871,-0.44104 0.426871,-0.37747 0,0.0136 -0.180975,0.19457 -0.402166,0.40217 L 62.513,125.99905 Z M 0.42337051,125.19472 c 0,-0.11642 0.0192176,-0.16404 0.042705,-0.10583 0.0234874,0.0582 0.0234874,0.15345 0,0.21166 -0.0234874,0.0582 -0.042705,0.0106 -0.042705,-0.10583 z m 67.21196249,-1.397 c 0.157971,-0.16298 0.306265,-0.29633 0.329548,-0.29633 0.02328,0 -0.08691,0.13335 -0.244881,0.29633 -0.157971,0.16298 -0.306265,0.29633 -0.329548,0.29633 -0.02328,0 0.08691,-0.13335 0.244881,-0.29633 z m -81.682163,-8.91116 c 3.434291,-0.0123 9.054041,-0.0123 12.4883326,0 3.4342915,0.0122 0.62441661,0.0223 -6.2441664,0.0223 -6.8685832,0 -9.6784582,-0.01 -6.2441662,-0.0223 z m 75.310997,-1e-5 c 30.419673,-0.0117 80.197323,-0.0117 110.616993,0 30.41968,0.0117 5.53085,0.0213 -55.3085,0.0213 -60.839343,0 -85.728167,-0.01 -55.308493,-0.0213 z m -60.36203953,-0.333 c 0.0611183,-0.0245 0.13414333,-0.0215 0.16227803,0.007 0.028134,0.0281 -0.021873,0.0481 -0.11112497,0.0445 -0.0986324,-0.004 -0.1186942,-0.0241 -0.0511531,-0.0511 z m 1.52399993,-1.69333 c 0.061118,-0.0245 0.1341442,-0.0215 0.1622781,0.007 0.028134,0.0281 -0.021873,0.0481 -0.111125,0.0445 -0.098632,-0.004 -0.1186942,-0.0241 -0.051153,-0.0512 z m -12.3909738,-2.67267 -0.4201506,-0.4445 0.4444999,0.42015 c 0.413037,0.39041 0.4833281,0.46885 0.4201507,0.46885 -0.013393,0 -0.2134176,-0.20002 -0.4445,-0.4445 z m 1.9424717,-0.16933 -0.1612891,-0.1905 0.1905,0.16129 c 0.1790225,0.15157 0.2290436,0.21971 0.1612891,0.21971 -0.016066,0 -0.1017913,-0.0857 -0.1905,-0.1905 z m -0.4684225,-0.46567 c -0.1053144,-0.13428 -0.1023197,-0.13728 0.031967,-0.032 0.081492,0.0639 0.1481667,0.13058 0.1481667,0.14816 0,0.0697 -0.069527,0.0248 -0.1801334,-0.1162 z M 147.73,108.09205 c -0.0699,-0.0451 -0.0889,-0.0821 -0.0423,-0.0821 0.0466,0 0.14182,0.0369 0.21167,0.0821 0.0699,0.0451 0.0889,0.0821 0.0423,0.0821 -0.0466,0 -0.14181,-0.0369 -0.21166,-0.0821 z m -0.3804,-0.25303 c -0.0297,-0.048 0.004,-0.0622 0.0797,-0.0333 0.14668,0.0563 0.17351,0.11697 0.0517,0.11697 -0.0438,0 -0.10294,-0.0377 -0.13139,-0.0837 z M -4.0881307,107.26655 c -0.1053144,-0.13428 -0.1023197,-0.13728 0.031967,-0.032 0.081492,0.0639 0.1481667,0.13058 0.1481667,0.14816 0,0.0697 -0.069527,0.0248 -0.1801334,-0.1162 z m 0.532168,-4.16983 c 0,-0.11642 0.019218,-0.16404 0.042705,-0.10583 0.023487,0.0582 0.023487,0.15345 0,0.21166 -0.023487,0.0582 -0.042705,0.0106 -0.042705,-0.10583 z M -18.74033,102.18665 c 0.852867,-0.0138 2.224467,-0.0138 3.048,5e-5 0.823533,0.0139 0.125733,0.0252 -1.550667,0.0251 -1.6764,-2e-5 -2.3502,-0.0114 -1.497333,-0.0252 z m 8.7627836,4e-5 c 0.7363307,-0.0141 1.9174307,-0.0141 2.6246666,6e-5 0.707235,0.0142 0.1047826,0.0257 -1.338784,0.0257 -1.4435662,-4e-5 -2.0222142,-0.0116 -1.2858826,-0.0257 z m 7.911049,1e-5 c 0.7567083,-0.014 1.99495824,-0.014 2.75166654,0 0.75670826,0.014 0.13758333,0.0255 -1.37583328,0.0255 -1.51341656,0 -2.13254156,-0.0115 -1.37583326,-0.0255 z m 6.9849997,-2e-5 c 0.8265583,-0.0139 2.1791083,-0.0139 3.0056666,0 0.8265583,0.0139 0.1502833,0.0252 -1.5028333,0.0252 -1.6531166,0 -2.3293916,-0.0113 -1.5028333,-0.0252 z m 41.2749987,-1.7e-4 c 18.312341,-0.0118 48.277989,-0.0118 66.590329,0 18.31234,0.0118 3.32952,0.0214 -33.295164,0.0214 -36.624682,0 -51.607506,-0.01 -33.295165,-0.0214 z m 131.402659,0 c 9.09214,-0.0119 23.97019,-0.0119 33.06233,0 9.09215,0.0119 1.65312,0.0216 -16.53116,0.0216 -18.18428,0 -25.62331,-0.01 -16.53117,-0.0216 z m -188.941456,-0.35979 c 0,-0.11642 0.01922,-0.16404 0.0427,-0.10583 0.02349,0.0582 0.02349,0.15345 0,0.21166 -0.02349,0.0582 -0.0427,0.0106 -0.0427,-0.10583 z M 147.39133,99.932086 c 0,-0.01758 0.0667,-0.08426 0.14817,-0.148167 0.13429,-0.105314 0.13728,-0.10232 0.032,0.03197 -0.11061,0.141033 -0.18014,0.185881 -0.18014,0.1162 z M 7.6002604,99.477219 7.3950022,99.244386 7.6278355,99.449644 c 0.2176179,0.191845 0.2716606,0.260408 0.2052583,0.260408 -0.015166,0 -0.1199405,-0.104775 -0.2328334,-0.232833 z m -10.7039244,-4.7625 c 0.084285,-0.09313 0.1722949,-0.169333 0.1955783,-0.169333 0.023283,0 -0.026627,0.0762 -0.1109117,0.169333 -0.084285,0.09313 -0.1722949,0.169333 -0.1955783,0.169333 -0.023283,0 0.026627,-0.0762 0.1109117,-0.169333 z M 197.76799,93.074086 c 0,-0.01758 0.0667,-0.08426 0.14817,-0.148167 0.13429,-0.105314 0.13728,-0.10232 0.032,0.03197 -0.11061,0.141033 -0.18014,0.185884 -0.18014,0.1162 z M 27.545668,92.852052 c 0.08429,-0.09313 0.172295,-0.169333 0.195578,-0.169333 0.02328,0 -0.02663,0.0762 -0.110911,0.169333 -0.08428,0.09313 -0.172295,0.169334 -0.195579,0.169334 -0.02328,0 0.02663,-0.0762 0.110912,-0.169334 z m 0.804333,-0.793966 c 0,-0.01758 0.06668,-0.08426 0.148167,-0.148167 0.134286,-0.105314 0.137281,-0.10232 0.03197,0.03197 -0.110606,0.141033 -0.180134,0.185884 -0.180134,0.1162 z m 170.264659,0 c 0,-0.01758 0.0667,-0.08426 0.14817,-0.148167 0.13429,-0.105314 0.13728,-0.10232 0.032,0.03197 -0.11061,0.141033 -0.18014,0.185884 -0.18014,0.1162 z M -18.195497,89.486622 c 1.152525,-0.01331 3.038475,-0.01331 4.191,0 1.152525,0.01331 0.20955,0.02419 -2.0955,0.02419 -2.30505,0 -3.248025,-0.01089 -2.0955,-0.02419 z m 14.1181663,0.0043 c 1.7787806,-0.06018 3.53674585,-0.06236 3.50074135,-0.0043 -0.0216704,0.03493 -0.98012835,0.05566 -2.12990505,0.04609 -1.1497767,-0.0096 -1.7666529,-0.02836 -1.3708363,-0.04175 z m 10.3504996,-0.0043 c 2.9686249,-0.01234 7.8263751,-0.01234 10.7949991,0 2.968625,0.01234 0.53975,0.02243 -5.397499,0.02243 -5.9372501,0 -8.366125,-0.01009 -5.3975001,-0.02243 z m 18.2456661,3.38e-4 c 0.477308,-0.01509 1.258358,-0.01509 1.735666,0 0.477309,0.01509 0.08678,0.02744 -0.867833,0.02744 -0.954616,0 -1.345141,-0.01235 -0.867833,-0.02744 z m 37.937638,-3.38e-4 c 17.75738,-0.01176 46.789577,-0.01176 64.515997,0 17.72643,0.01176 3.19766,0.02139 -32.286138,0.02139 -35.483799,0 -49.987235,-0.0096 -32.229859,-0.02139 z m 104.803747,1.1e-5 c 3.2211,-0.01228 8.517,-0.01229 11.76866,-4e-6 3.25166,0.01228 0.61622,0.02233 -5.85655,0.02233 -6.47277,10e-7 -9.13322,-0.01005 -5.91211,-0.02233 z m 39.41894,-5e-6 c 3.76026,-0.0122 9.91341,-0.0122 13.67367,0 3.76026,0.0122 0.68368,0.02218 -6.83684,0.02218 -7.52051,0 -10.59709,-0.01 -6.83683,-0.02218 z m -6.43933,-2.857517 c 0.002,-0.1397 0.0207,-0.1866 0.0422,-0.104222 0.0215,0.08238 0.0201,0.196678 -0.003,0.254 -0.0232,0.05732 -0.0408,-0.01008 -0.039,-0.149778 z M -2.2993307,86.729559 c 0,-0.01457 0.123825,-0.138396 0.2751666,-0.275166 l 0.2751667,-0.248674 -0.2486736,0.275167 c -0.2317987,0.256494 -0.3016597,0.314084 -0.3016597,0.248673 z M 29.693868,85.591886 c -0.105314,-0.134287 -0.10232,-0.137281 0.03197,-0.03197 0.08149,0.06391 0.148166,0.130586 0.148166,0.148167 0,0.06968 -0.06953,0.02483 -0.180133,-0.1162 z M 189.21666,84.860111 c 0,-0.0183 0.0591,-0.05597 0.1314,-0.0837 0.0753,-0.02891 0.10933,-0.01472 0.0797,0.03328 -0.0497,0.08045 -0.21107,0.118994 -0.21107,0.05042 z M 0.57933581,84.014752 c 0,-0.01758 0.066675,-0.08426 0.14816666,-0.148166 0.13428641,-0.105315 0.13728107,-0.10232 0.0319667,0.03197 -0.11060599,0.141033 -0.18013341,0.185883 -0.18013341,0.116199 z M 197.15416,83.228646 c 0.0582,-0.02349 0.15346,-0.02349 0.21167,0 0.0582,0.02349 0.0106,0.0427 -0.10584,0.0427 -0.11641,0 -0.16404,-0.01922 -0.10583,-0.0427 z M -4.500664,80.543419 c 0,-0.01758 0.066675,-0.08426 0.1481667,-0.148167 0.1342864,-0.105314 0.137281,-0.102319 0.031967,0.03197 -0.110606,0.141034 -0.1801334,0.185884 -0.1801334,0.1162 z m -11.4935,-3.756849 c 2.363259,-0.01251 6.2304086,-0.01251 8.5936668,0 2.3632582,0.01251 0.4296833,0.02274 -4.2968328,0.02274 -4.726517,0 -6.660092,-0.01023 -4.296834,-0.02274 z m 14.6911829,0.0021 c 0.1521757,-0.01884 0.38077565,-0.01846 0.50800002,8.63e-4 0.12722436,0.01932 0.002718,0.03474 -0.27668302,0.03426 -0.2794,-5.08e-4 -0.3834926,-0.01628 -0.231317,-0.03512 z m 11.1321499,-0.0021 c 2.3166912,-0.01252 6.1076412,-0.01252 8.4243332,0 2.316691,0.01252 0.421216,0.02277 -4.212167,0.02277 -4.6333829,0 -6.5288578,-0.01024 -4.2121662,-0.02277 z m 47.7096652,-1.7e-5 c 18.638307,-0.01176 49.137356,-0.01176 67.775666,0 18.63831,0.01176 3.38878,0.02138 -33.887835,0.02138 -37.276615,0 -52.526139,-0.0096 -33.887831,-0.02138 z m 113.029996,4e-6 c 5.04084,-0.01206 13.28949,-0.01206 18.33033,0 5.04084,0.01206 0.91652,0.02193 -9.16516,0.02193 -10.08169,0 -14.20601,-0.0099 -9.16517,-0.02193 z m 36.45567,2e-6 c 3.71736,-0.0122 9.77526,-0.0122 13.462,2e-6 3.68673,0.01221 0.64526,0.02219 -6.75884,0.02219 -7.4041,-2e-6 -10.42053,-0.01 -6.70316,-0.02219 z M -2.0222709,72.447386 c 0,-0.20955 0.016512,-0.295275 0.036692,-0.1905 0.020181,0.104775 0.020181,0.276225 0,0.381 -0.02018,0.104775 -0.036692,0.01905 -0.036692,-0.1905 z m -1.9637087,-2.166055 c 0.00406,-0.09863 0.024125,-0.118694 0.051152,-0.05115 0.024458,0.06112 0.02145,0.134144 -0.00668,0.162278 -0.028135,0.02813 -0.048145,-0.02187 -0.044469,-0.111125 z M -20.345628,64.128473 c 0.03516,-0.03515 3.852784,-0.0542 8.483611,-0.04233 l 8.4196863,0.02159 -8.4836103,0.04232 c -4.665987,0.02328 -8.454845,0.01356 -8.419687,-0.02159 z m 21.32166946,-0.04176 c 0.80027104,-0.0139 2.13377094,-0.01393 2.96333324,-5.2e-5 0.8295614,0.01387 0.1747943,0.02525 -1.455039,0.02528 -1.62983323,2.8e-5 -2.30856608,-0.01132 -1.50829424,-0.02523 z m 44.62479254,-1.6e-4 c 20.826941,-0.01174 54.907386,-0.01174 75.734326,0 20.82695,0.01175 3.78672,0.02135 -37.867161,0.02135 -41.653882,0 -58.694106,-0.0096 -37.867165,-0.02135 z m 124.967996,4e-6 c 5.04084,-0.01206 13.28949,-0.01206 18.33033,0 5.04084,0.01206 0.91652,0.02193 -9.16516,0.02193 -10.08169,0 -14.20601,-0.0099 -9.16517,-0.02193 z m 36.498,2e-6 c 3.74064,-0.0122 9.83664,-0.0122 13.54667,2e-6 3.71002,0.0122 0.64949,0.02218 -6.80117,0.02218 -7.45067,-2e-6 -10.48614,-0.01 -6.7455,-0.02219 z M 2.3414607,54.694216 c 0.061118,-0.02446 0.1341442,-0.02145 0.1622781,0.0067 0.028134,0.02813 -0.021873,0.04814 -0.111125,0.04447 -0.098632,-0.0041 -0.1186942,-0.02412 -0.051153,-0.05115 z"
         id="path114" />
      <path
         style="display:inline;opacity:0.981129;fill:#f2f2f2;fill-opacity:1;stroke:#cccccc;stroke-width:0.09;stroke-miterlimit:4;stroke-dasharray:none;stroke-opacity:1"
         d="m -20.439163,237.93753 c -0.140942,-0.107 -0.148167,-4.3414 -0.148167,-86.83481 0,-82.493406 0.0072,-86.727817 0.148167,-86.834807 0.120834,-0.09173 1.696625,-0.112972 8.542212,-0.115168 l 8.3940464,-0.0027 0.1475401,-0.613833 c 0.2404305,-1.000302 0.78407,-2.72434 1.1437306,-3.627107 1.34945458,-3.387197 2.90501994,-5.156782 4.5332877,-5.156993 0.4367826,-5.7e-5 0.5761931,0.0407 0.9214011,0.269353 0.8235458,0.545495 1.7576994,1.956512 2.8204607,4.260247 0.8034122,1.741544 1.2829675,3.062216 1.5685761,4.319786 L 7.7470589,64.10772 83.45353,64.128934 159.16,64.150147 V 56.418683 48.68722 l 20.3835,-7.215109 c 11.21092,-3.968309 20.46922,-7.237315 20.57399,-7.264458 l 0.1905,-0.04935 v 14.995874 14.995875 h 13.46805 c 11.55942,0 13.48519,0.01714 13.589,0.120952 0.1828,0.1828 0.1828,173.480626 0,173.663426 -0.17528,0.17528 -247.573306,0.17837 -247.804203,0.003 z m 247.650543,-6.33798 -0.0217,-6.20183 h -32.893 -32.893 l -0.0508,2.159 c -0.0368,1.56318 -0.0912,2.34592 -0.19694,2.83633 -0.62508,2.89784 -1.84424,4.44252 -4.57821,5.80053 -1.88552,0.93658 -3.38993,1.28961 -5.50333,1.29142 -2.01426,0.002 -3.16138,-0.34937 -4.04758,-1.23883 -0.84521,-0.84832 -1.189,-1.80323 -1.17756,-3.27079 0.0187,-2.39997 1.22985,-4.37427 3.61145,-5.88704 0.95773,-0.60833 1.99633,-1.02382 3.98436,-1.59393 0.36864,-0.10571 -7.56724,-0.12253 -61.430951,-0.13021 l -61.854288,-0.009 -0.53975,0.8255 c -0.734783,1.12379 -2.211919,2.58422 -4.494848,4.44404 -1.00531,0.81898 -2.01496,1.65102 -2.243666,1.84898 l -0.415829,0.35992 -0.02205,-3.73922 -0.02205,-3.73922 H 6.4047689 -9.6120353 l -0.8098137,0.46001 c -1.118034,0.63511 -3.634002,1.86636 -3.693057,1.80731 -0.102177,-0.10218 -0.284878,-0.95605 -0.210031,-0.9816 0.144742,-0.0494 1.48321,-0.95989 1.651588,-1.12349 0.164616,-0.15993 0.112147,-0.16223 -3.704166,-0.16223 h -3.871148 v 6.223 6.223 H 103.49222 227.23309 Z M 24.480633,228.92951 c 1.048582,-1.2392 2.514702,-3.29348 2.514702,-3.52353 0,-0.0298 -0.733425,-0.0439 -1.629834,-0.0313 l -1.629833,0.023 -0.02261,2.18605 c -0.01459,1.41121 0.0068,2.16789 0.06033,2.1348 0.04562,-0.0282 0.363875,-0.38327 0.707242,-0.78906 z m -35.987449,-4.31496 c 0.351046,-0.26776 0.994715,-0.77498 1.430376,-1.12716 0.4356595,-0.35218 1.0323656,-0.81491 1.3260124,-1.02828 0.731023,-0.5312 2.6302741,-2.26904 3.701276,-3.38671 1.4662582,-1.53017 2.9339666,-3.45279 4.14170948,-5.42544 0.30549425,-0.49899 0.55544464,-0.92621 0.55544464,-0.9494 0,-0.0232 -4.47674982,-0.0422 -9.94833252,-0.0422 h -9.948333 v 6.223 6.223 h 4.051791 4.051791 z m 33.930151,-5.73656 v -6.22341 l -8.611618,0.0216 -8.6116193,0.0216 -0.5262634,0.7557 c -1.3566995,1.94819 -3.2151878,3.98903 -5.06816511,5.56546 -1.44207059,1.22685 -4.56221739,3.5127 -5.41866649,3.96978 -0.4040056,0.21561 -3.2341107,1.97428 -3.32773,2.0679 -0.024654,0.0247 7.0671746,0.0448 15.7596181,0.0448 H 22.423335 Z m 4.962204,5.76141 c 0.401771,-0.87759 0.403878,-1.89233 0.0052,-2.49481 -0.255836,-0.38659 -0.819796,-0.6847 -1.289946,-0.68187 -0.646234,0.004 -2.048384,0.73459 -2.284013,1.19025 -0.08962,0.1733 -0.123423,0.54126 -0.123423,1.34354 v 1.10487 h 1.740351 1.740351 l 0.211502,-0.46198 z m 130.208121,0.34851 1.60867,-0.0982 v -6.096 -6.096 H 91.468999 23.735668 l -0.02191,4.46301 -0.02191,4.46301 0.63071,-0.45252 c 1.472866,-1.05673 3.162623,-1.37328 4.325539,-0.81032 0.491351,0.23786 1.398898,1.21412 1.701421,1.83024 0.21414,0.43611 0.24316,0.58572 0.236049,1.21691 -0.0054,0.48259 -0.06386,0.88004 -0.177359,1.2065 l -0.169252,0.48683 62.873023,-0.008 c 46.629741,-0.006 63.288631,-0.033 64.481691,-0.10583 z m 69.61772,-6.08836 -0.0217,-6.20183 h -32.893 -32.893 l -0.0217,6.20183 -0.0217,6.20183 h 32.93643 32.93643 z M 0.30530623,211.51238 C 1.7985002,208.67547 2.9446853,203.94959 2.9491286,200.61155 l 8.738e-4,-0.65617 H -0.55407733 -4.0581571 l -0.1042221,0.55236 c -0.1468043,0.77804 -0.5737301,1.61977 -1.0376517,2.04584 -0.8278292,0.76031 -1.7885985,1.06772 -3.3646329,1.07656 -1.2342071,0.007 -1.7201532,-0.0925 -2.6770522,-0.5478 -1.076617,-0.51222 -2.192776,-1.71797 -2.543692,-2.74785 l -0.129173,-0.37911 h -3.167041 -3.167041 v 6.22335 6.22335 l 10.054166,-0.0215 10.05416618,-0.0215 z M 22.423335,209.01472 v -3.38667 h 0.635 0.635 v 3.38672 3.38672 l 67.754497,-0.0212 67.754498,-0.0212 v -6.18067 -6.18066 l -74.939302,-0.0212 -74.939304,-0.0212 -0.047988,1.37588 c -0.06368,1.82581 -0.300189,3.08152 -0.9448418,5.01655 -0.5438547,1.63246 -1.6058684,3.85213 -2.7242439,5.69383 l -0.2185086,0.35983 h 8.5175963 8.517597 z m -9.729777,-1.14525 c -0.578689,-0.1622 -0.922924,-0.37458 -1.320581,-0.81474 -0.49142,-0.54394 -0.673653,-1.02293 -0.672607,-1.76791 7.62e-4,-0.53029 0.04213,-0.72184 0.245924,-1.1384 0.333039,-0.6807 0.835436,-1.16376 1.451928,-1.39601 0.702772,-0.26477 1.829259,-0.21899 2.448099,0.0995 0.879498,0.45263 1.327701,1.18968 1.381118,2.27119 0.03702,0.74963 -0.0604,1.17096 -0.391155,1.69159 -0.580841,0.91427 -1.974852,1.38214 -3.142726,1.05478 z m 214.517822,-1.66992 -0.0217,-6.20183 h -32.893 -32.893 l -0.0217,6.20183 -0.0217,6.20183 h 32.93643 32.93643 z m -241.252009,-6.81567 c -0.03574,-0.17462 -0.06266,-0.94615 -0.05983,-1.7145 0.0045,-1.22251 0.03233,-1.49871 0.222776,-2.2114 0.554947,-2.07669 1.737174,-3.77061 3.623109,-5.19127 1.6323615,-1.22963 3.0338047,-1.94197 4.7192166,-2.3987 0.7630498,-0.20678 0.9525812,-0.22335 2.6010217,-0.22733 1.98675489,-0.005 2.53217415,0.0747 4.1063332,0.59834 1.6043291,0.53369 3.2729575,1.54349 4.3300749,2.62042 1.2136027,1.23635 2.3309732,3.02965 2.9770484,4.77794 0.4085996,1.10568 0.7362097,2.62672 0.7362097,3.41808 v 0.64602 l 74.9934965,-0.0212 74.993503,-0.0212 v -6.18067 -6.18066 l -89.725502,-0.0212 -89.725496,-0.0212 v 6.22303 6.22304 h 3.136503 3.136503 z m 26.727298,-2.69015 c -0.880535,-0.24268 -1.622581,-0.97459 -1.907964,-1.8819 -0.371261,-1.18033 0.320973,-2.64834 1.529172,-3.24288 0.35221,-0.17332 0.545824,-0.20723 1.183125,-0.20723 0.657264,0 0.826245,0.0316 1.22941,0.22955 0.953335,0.46821 1.448647,1.23781 1.508239,2.34346 0.03894,0.72242 -0.06832,1.16069 -0.419473,1.7141 -0.581905,0.91706 -1.93882,1.37114 -3.122509,1.0449 z m -9.7621784,1.63182 c -0.085595,-2.32898 -0.5497491,-4.82226 -1.084502,-5.82556 -0.88046729,-1.65192 -2.34495588,-2.81196 -4.0081817,-3.17494 -1.2857471,-0.28058 -3.7223995,-0.0199 -5.1688041,0.55288 -1.2505774,0.49528 -1.7891844,0.90189 -2.6943968,2.03412 -0.834064,1.04324 -1.198338,2.08723 -0.989075,2.83465 0.21929,0.78323 0.535387,0.8496 2.0324719,0.42674 1.0467856,-0.29566 1.7002378,-0.26098 2.4998704,0.13268 0.6489471,0.31948 1.5079946,1.13801 1.8458941,1.75885 0.2902932,0.53336 0.5649019,1.59518 0.5649019,2.18429 v 0.45212 h 3.52619299 3.52619301 z m 224.2868894,-4.826 -0.0217,-6.20183 h -32.893 -32.893 l -0.0217,6.20183 -0.0217,6.20183 h 32.93643 32.93643 z m -67.98613,-8.255 0.0229,-1.7145 h 1.05658 1.05658 v 1.73567 1.73566 h 32.93533 32.93533 V 151.10272 115.20405 H 116.65733 c -88.403507,0 -110.5745773,0.0212 -110.5742428,0.10584 2.54e-4,0.0582 0.32258,1.63686 0.7163333,3.50812 0.8115147,3.85663 0.8920496,4.38654 0.8915747,5.86649 -0.00132,4.1248 -1.7853067,6.74104 -5.2818333,7.7459 -1.0404322,0.29901 -2.64633615,0.49862 -3.4273023,0.426 -2.3482248,-0.21833 -5.0311454,-1.8534 -6.3660475,-3.87968 -0.7431497,-1.12806 -0.8841426,-1.6164 -0.8841426,-3.06233 0,-1.02803 0.026855,-1.26399 0.2023432,-1.778 0.8500567,-2.48984 2.1559341,-3.54143 4.4107945,-3.55187 0.7959242,-0.004 0.9420529,0.0202 1.3798769,0.22532 1.0865036,0.50911 2.06432397,1.53726 2.45644069,2.58288 0.15476304,0.41269 0.18385535,0.66933 0.18508556,1.63267 0.001414,1.10712 -0.006833,1.16027 -0.26268086,1.69333 -0.29984191,0.62472 -0.83205063,1.18937 -1.64049959,1.7405 -0.7152606,0.4876 -1.3726871,0.71483 -2.0681746,0.71483 h -0.5480439 l 0.091617,0.27517 c 0.1291319,0.38784 0.5314163,0.78501 1.1255036,1.11118 0.9137269,0.50167 1.3323079,0.60447 2.41473729,0.59302 1.20921945,-0.0128 2.28991151,-0.27653 3.46528971,-0.84572 0.68723,-0.33281 0.920021,-0.50345 1.5318951,-1.12288 0.8197435,-0.82988 1.2085887,-1.52025 1.5334352,-2.72255 0.1693325,-0.62672 0.1936673,-0.91486 0.192863,-2.28355 -6.773e-4,-1.20217 -0.03584,-1.71397 -0.1511139,-2.20133 -0.1664123,-0.70358 -0.6441355,-3.0705 -1.072305,-5.31284 L 4.699854,115.20405 H -7.7744047 -20.248663 v 35.89871 35.8987 l 89.725496,-0.0212 89.725497,-0.0212 z m -7.89692,-0.7674 c -0.71363,-0.44127 -1.94645,-2.16314 -2.74316,-3.83135 -1.96321,-4.11076 -2.4695,-8.57656 -1.65512,-14.59942 0.20529,-1.51829 0.35388,-2.36035 1.08314,-6.13833 0.62735,-3.25007 0.68928,-3.75312 0.67743,-5.50333 -0.006,-0.86149 -0.0465,-1.68064 -0.0903,-1.82034 l -0.0797,-0.254 -0.49028,0.508 c -1.62091,1.67951 -3.62087,5.61859 -7.11438,14.01234 -3.18892,7.66192 -4.27759,9.76039 -6.01091,11.58638 -0.51894,0.54668 -1.22308,1.11362 -1.38314,1.11362 -0.21017,0 -0.93288,-2.2555 -1.2208,-3.81 -0.15184,-0.81973 -0.18083,-1.30163 -0.18338,-3.048 -0.003,-2.35266 0.0318,-2.70513 0.79519,-7.95867 0.91908,-6.32479 1.18029,-9.3713 1.0571,-12.32846 -0.0713,-1.71159 0.009,-1.66495 -0.92804,-0.54087 -1.66024,1.9922 -2.87512,4.55125 -5.06452,10.668 -1.73332,4.84258 -2.44595,6.56742 -3.43433,8.31254 -3.27718,5.78633 -6.78548,8.12952 -13.22347,8.83195 -0.67323,0.0735 -2.32896,0.15648 -3.67939,0.18451 -5.41132,0.11231 -9.498819,-0.46789 -11.825992,-1.67861 -2.057375,-1.07037 -2.116422,-2.34264 -0.19801,-4.26645 1.090311,-1.09338 2.419155,-1.9798 4.609092,-3.07456 3.99273,-1.99598 8.96316,-3.60392 15.45824,-5.00077 2.87397,-0.61807 6.74462,-1.27603 7.50918,-1.27644 1.43715,-8.5e-4 -1.25836,1.43217 -5.09647,2.70931 -2.1379,0.71139 -4.08941,1.2273 -8.63571,2.28297 -2.21191,0.51362 -4.59316,1.08821 -5.29166,1.27686 -4.175245,1.12768 -7.289344,2.61336 -8.722565,4.16141 -0.557411,0.60208 -0.727481,1.0543 -0.517177,1.37526 0.209846,0.32027 0.463202,0.45442 1.203502,0.63725 1.556114,0.38433 5.36445,0.55402 10.7879,0.48073 3.79099,-0.0512 5.06502,-0.11727 6.858,-0.35547 4.74997,-0.631 7.83712,-2.67429 10.18645,-6.74209 1.02202,-1.76962 1.66817,-3.39088 3.31752,-8.32407 1.20642,-3.60839 1.71656,-4.92723 2.58724,-6.68867 1.65241,-3.34293 3.79385,-5.97281 5.51652,-6.7748 0.794,-0.36965 0.98689,-0.26238 1.22682,0.68228 0.1281,0.50434 0.14972,0.99157 0.15017,3.38319 8.4e-4,4.07624 -0.13727,5.40129 -1.42885,13.716 -0.81234,5.22951 -0.89456,7.13786 -0.41932,9.73322 l 0.13889,0.75856 0.44844,-0.48177 c 1.15174,-1.23737 1.90512,-2.74892 4.09572,-8.21755 1.8931,-4.7259 2.67715,-6.53313 3.93662,-9.07379 1.2258,-2.47274 2.37231,-4.44432 3.53507,-6.07902 1.34329,-1.8885 2.79214,-3.36177 3.72016,-3.78288 0.50623,-0.22971 0.71665,-0.21597 0.8961,0.0585 0.13293,0.20332 0.14917,0.44323 0.14185,2.0955 -0.0122,2.75456 -0.27017,4.51344 -1.51337,10.31907 -1.37671,6.42907 -1.73616,9.19221 -1.62152,12.46504 0.15294,4.36621 0.95226,7.0094 2.78558,9.21133 0.46622,0.55996 0.56936,0.73672 0.55033,0.94311 -0.0185,0.20076 -0.0678,0.2588 -0.23508,0.27692 -0.11642,0.0126 -0.32597,-0.0478 -0.46567,-0.13415 z M 62.386,156.17986 c -6.887113,-0.53445 -10.380129,-2.95109 -11.219067,-7.76193 -0.184584,-1.05849 -0.166036,-3.07877 0.03921,-4.27063 0.976921,-5.67301 5.334012,-12.4413 12.276523,-19.07029 4.467824,-4.26608 9.447925,-7.39265 13.770396,-8.64525 2.631177,-0.76249 5.230317,-0.57337 6.414964,0.46676 0.551189,0.48395 0.690795,0.85035 0.677012,1.77687 -0.04698,3.15817 -1.873521,7.47058 -5.827429,13.75833 -2.167255,3.4465 -3.110602,4.91507 -3.42635,5.334 -0.682633,0.9057 -1.190591,1.22937 -1.190591,0.75863 0,-0.29374 0.218169,-0.69925 1.237065,-2.29936 3.419695,-5.37042 5.595848,-10.01003 6.21974,-13.2607 0.131614,-0.68575 0.103386,-2.18048 -0.0526,-2.78558 -0.285385,-1.10703 -0.96387,-1.92468 -1.883799,-2.27021 -3.691797,-1.38663 -10.37032,3.26796 -16.647129,11.60222 -2.276274,3.0224 -4.158333,6.1826 -6.277694,10.541 -2.337913,4.80784 -3.220505,7.25415 -3.316998,9.19383 -0.05562,1.11809 0.07637,1.57899 0.627838,2.19236 1.233059,1.37146 4.306322,1.88748 11.288248,1.89536 6.441364,0.007 10.486,-0.51169 13.872066,-1.77992 0.80214,-0.30044 1.00689,-0.3081 1.095925,-0.041 0.09809,0.29426 -1.457223,1.363 -3.221829,2.2139 -2.427342,1.17045 -5.176858,1.9391 -8.359495,2.33695 -1.197399,0.14967 -4.776984,0.21699 -6.096,0.11464 z M 4.6014087,114.67489 c -0.1177222,-0.58492 -0.1243186,-0.59347 -0.4110964,-0.53347 -0.6850126,0.14333 -2.4742486,0.37334 -3.31464316,0.42609 -2.25973884,0.14186 -4.75586614,-0.36115 -6.74192424,-1.35861 -1.5551192,-0.78103 -2.7255148,-1.67694 -4.2647419,-3.26457 -1.823466,-1.8808 -2.860751,-3.69187 -3.71321,-6.48314 l -0.279382,-0.9148 -3.062537,-0.0222 -3.062537,-0.0222 v 6.22406 6.22405 H -7.7959362 4.65679 Z m 222.6099713,-5.969 0.0217,-6.20184 H 194.0888 160.94452 l -0.0956,0.35514 c -0.1311,0.48686 -0.59436,1.50753 -0.68423,1.50753 -0.0403,0 -0.0733,0.0364 -0.0733,0.0809 0,0.30425 -1.32818,1.69453 -2.11725,2.21626 -0.84305,0.55741 -2.79342,1.51552 -2.79342,1.37225 0,-0.0272 -0.0505,-0.008 -0.11216,0.0436 -0.1832,0.15204 -1.80749,0.50603 -2.80884,0.61215 -1.07188,0.1136 -2.50248,0.0521 -3.17964,-0.13671 -0.25356,-0.0707 -0.50344,-0.13861 -0.55529,-0.15093 -0.1257,-0.0299 -0.88556,-0.41698 -1.02829,-0.52386 -0.77218,-0.57823 -1.36722,-1.49864 -1.59302,-2.46406 -0.13506,-0.5775 -0.13136,-1.64306 0.009,-2.55244 l 0.0555,-0.35984 H 79.41189 12.856002 l -8.5e-5,0.91017 c -5.08e-4,3.99448 -2.296637,7.39146 -6.6169043,9.78929 l -0.5633534,0.31267 0.1189144,0.52644 c 0.065402,0.28954 0.1386662,0.61217 0.162808,0.71696 l 0.043895,0.19054 110.5942033,-0.0212 110.59418,-0.0212 z M 1.3725109,113.04667 c 0.37867,-0.069 1.1552165,-0.18975 1.7256581,-0.26841 0.5704417,-0.0787 1.0371667,-0.16865 1.0371667,-0.19997 0,-0.0313 -0.4572,-2.29302 -1.016,-5.02603 -0.5588,-2.73301 -1.0159999,-4.98691 -1.0159999,-5.00866 0,-0.0217 -1.2565744,-0.0395 -2.79238704,-0.0395 H -3.4814382 l -0.04753,0.1905 c -0.063845,0.25589 0.085783,1.52328 0.2586846,2.19113 0.4015774,1.55113 1.4075655,2.77082 2.85536967,3.46194 0.63732662,0.30423 0.74024995,0.39727 0.74024995,0.6692 0,0.51221 -0.40430533,0.55497 -1.40596532,0.14868 -1.938279,-0.78621 -3.4045083,-2.06095 -4.2049325,-3.65578 -0.3019332,-0.6016 -0.635834,-1.76467 -0.6988167,-2.43417 l -0.053763,-0.5715 h -2.6179271 -2.6179284 l 0.0017,0.61384 c 0.0035,1.27833 0.223474,2.16944 0.884864,3.58445 1.3910005,2.97598 4.1698366,5.26453 7.3980477,6.09276 1.457137,0.37385 3.15331,0.47167 4.3619198,0.25157 z M 6.0172953,111.848 c 1.8715388,-1.1369 3.1655747,-2.80179 3.6760927,-4.72961 0.2189336,-0.82674 0.2034057,-3.01916 -0.027883,-3.937 l -0.1600149,-0.635 -3.0307075,-0.0222 -3.0307076,-0.0222 0.050636,0.23391 c 0.1282921,0.59264 1.8259586,9.28361 1.8259586,9.34774 0,0.1365 0.1898192,0.0723 0.6966263,-0.23555 z m -20.2562913,-9.74611 c -9.16e-4,-0.0815 -0.05711,-0.45297 -0.124883,-0.8255 -0.559114,-3.073503 0.07141,-6.956831 1.656574,-10.202675 0.322653,-0.660675 0.586641,-1.216625 0.586641,-1.235445 0,-0.01882 -1.8288,-0.03422 -4.064,-0.03422 h -4.063999 v 6.223 6.223 h 3.005666 c 2.80673,0 3.005557,-0.01 3.004001,-0.14816 z m 8.1450985,-0.35984 c -0.095744,-1.65738 0.6128715,-3.900455 1.7280787,-5.470113 0.5195113,-0.731213 1.613082,-1.880916 2.2725083,-2.389155 0.5229741,-0.403071 1.82648599,-1.115396 2.04110751,-1.115396 0.15893288,0 0.16139583,0.02469 -0.15629635,-1.566334 l -0.27049814,-1.354666 -2.29380872,-0.0225 -2.2938079,-0.0225 -0.6752191,0.784504 c -2.6467654,3.075143 -4.6024778,6.512053 -5.3140658,9.338779 -0.158188,0.628391 -0.331407,2.125881 -0.259387,2.242421 0.03413,0.0552 0.970744,0.0775 2.6505369,0.063 l 2.5977518,-0.0224 z m 8.109997,0.4445 c -0.00787,-0.19442 -0.9101548,-4.433445 -0.9527328,-4.476022 -0.0779933,-0.07799 -1.14196452,0.352525 -1.75096336,0.708498 -0.68936274,0.402949 -1.51157004,1.164929 -1.91845434,1.777924 -0.3447694,0.51942 -0.7863916,1.55928 -0.7910321,1.8626 l -0.00291,0.1905 h 2.70933326 c 1.49013328,0 2.70817664,-0.0286 2.70676364,-0.0635 z m 7.3685693,0.003 c 0,-0.0332 -0.1524339,-0.36805 -0.3387412,-0.74414 C 8.6026883,100.55082 7.7696581,99.523192 7.0407552,98.971994 5.9118802,98.118336 4.2151611,97.512827 2.9435728,97.509831 l -0.4720962,-0.0011 0.4496477,2.29201 c 0.2473054,1.260599 0.4715222,2.327399 0.4982591,2.370669 0.056809,0.0919 5.9652854,0.11006 5.9652854,0.0183 z M 146.34001,101.63622 c 0.1637,-0.33761 0.3493,-0.70436 0.41243,-0.81499 0.26544,-0.46513 1.11473,-1.382721 1.77052,-1.912905 0.51698,-0.417967 1.81054,-1.22983 1.95996,-1.230111 0.0473,-8.5e-5 0.21871,-0.06965 0.381,-0.154571 1.40977,-0.737711 4.05064,-1.262917 7.13191,-1.418373 L 159.16,96.046535 V 92.925294 89.804052 H 94.621808 30.083616 l -0.435063,0.656167 c -0.811745,1.224279 -1.930432,2.360986 -3.923218,3.986417 -0.48895,0.398816 -1.431925,1.17586 -2.0955,1.726765 l -1.2065,1.001646 V 93.48955 89.804052 H 11.713002 c -8.5117885,0 -10.7103456,0.02173 -10.7103947,0.105834 -3.47e-5,0.05821 0.099544,0.605186 0.221284,1.215507 l 0.2213466,1.109673 1.6625484,-0.0083 c 1.3615475,-0.0068 1.7923078,0.02129 2.3792569,0.155341 1.3952533,0.318666 3.1409308,1.392377 4.343139,2.671328 1.6822128,1.789598 2.5710768,3.636666 2.9132028,6.053665 0.07251,0.51224 0.145361,0.97896 0.1619,1.03717 0.02402,0.0845 13.413253,0.10583 66.583576,0.10583 h 66.553519 l 0.29763,-0.61383 z m 80.87137,-5.630334 0.0217,-6.201834 h -13.71836 -13.71837 l -0.0934,0.232834 c -0.0514,0.128058 -0.11964,0.309033 -0.15171,0.402166 -0.12769,0.370752 -0.64455,1.328275 -0.78616,1.456436 -0.0827,0.07488 -0.15044,0.168337 -0.15044,0.207687 0,0.207067 -1.07535,1.219608 -1.82033,1.714007 -1.27849,0.848461 -3.38129,1.717337 -4.50537,1.861624 -0.17635,0.02264 -0.63665,0.08564 -1.0229,0.140008 -0.67511,0.09503 -2.30892,0.07417 -3.02307,-0.0386 -0.62458,-0.09862 -1.73566,-0.516377 -1.73566,-0.652587 0,-0.04083 -0.0408,-0.07424 -0.0907,-0.07424 -0.0976,0 -0.19939,-0.08414 -0.69366,-0.573476 -0.35502,-0.351489 -0.86352,-1.319796 -0.96599,-1.839524 -0.0827,-0.419436 -0.0905,-2.0892 -0.0118,-2.518834 l 0.0582,-0.3175 h -11.67171 -11.67171 l -0.0385,5.439834 c -0.0322,4.550129 -0.0607,5.550613 -0.17464,6.117163 -0.0749,0.37254 -0.13692,0.72501 -0.13783,0.78328 -0.001,0.0847 6.63309,0.10166 33.03949,0.0847 l 33.04117,-0.0213 z m -202.138911,-3.4925 c 0.820357,-1.019284 1.838199,-2.477738 1.838199,-2.633933 0,-0.04147 -0.7239,-0.0754 -1.608667,-0.0754 h -1.608666 l 0.0034,2.180167 0.0034,2.180167 0.260234,-0.296334 c 0.143129,-0.162983 0.643537,-0.772583 1.112019,-1.354666 z m -36.979798,-3.02813 c 0.04748,-0.03421 0.414907,-0.557504 0.816496,-1.16287 1.085453,-1.636246 3.6912688,-4.737345 5.8694119,-6.985 1.4346859,-1.480472 2.3293856,-2.517874 2.3295321,-2.701087 5.93e-5,-0.07438 -0.043814,-0.449571 -0.097497,-0.833746 l -0.097605,-0.6985 h -8.580835 -8.580836 v 6.223 6.222999 l 4.127499,-0.0013 c 2.270125,-6.77e-4 4.166351,-0.02929 4.213835,-0.0635 z m 11.31733099,0.02057 c 0.0353763,-0.03538 -0.45827779,-2.68021 -0.65231939,-3.494906 -0.046085,-0.193494 -0.04863,-0.192881 -0.3811244,0.09172 -0.4495233,0.384775 -3.1312222,3.270243 -3.1312222,3.369148 0,0.08128 4.0840447,0.114657 4.16466599,0.03404 z M 22.423335,83.327053 v -6.223 h -8.509 c -4.6799495,0 -8.5089994,0.02945 -8.5089994,0.06545 0,0.141225 -1.0600613,1.960898 -1.7078189,2.931596 -0.86339,1.293833 -1.7689101,2.450568 -2.88905258,3.690549 l -0.87859697,0.972594 0.45111161,2.202406 c 0.24811057,1.211324 0.47116744,2.288131 0.49568013,2.392906 l 0.0445694,0.1905 H 11.672282 22.423335 Z m 4.780551,6.027971 c 0.443784,-0.677301 0.620542,-2.053089 0.336164,-2.616516 -0.36282,-0.71884 -1.063558,-1.07264 -1.798336,-0.907972 -0.548598,0.122943 -1.496143,0.641114 -1.795191,0.98171 l -0.253188,0.288365 v 1.224721 1.22472 h 1.691382 c 1.672234,0 1.692827,-0.0022 1.819169,-0.195028 z M 159.16,83.327053 v -6.223 H 91.426665 23.693335 v 4.402666 c 0,2.421467 0.02128,4.402667 0.0473,4.402667 0.02601,0 0.187939,-0.112104 0.359833,-0.24912 0.521214,-0.415457 1.276273,-0.834181 1.868258,-1.036058 0.821619,-0.280186 2.006327,-0.275897 2.592944,0.0094 0.572382,0.278362 1.423004,1.178184 1.759054,1.860799 0.233893,0.475104 0.270203,0.636832 0.266932,1.188949 -0.0032,0.541317 -0.129236,1.179082 -0.343163,1.73657 -0.0449,0.117005 6.458149,0.130139 64.432782,0.130139 H 159.16 Z m 25.85985,5.820833 c 0.14611,-0.435873 0.55716,-1.186508 0.89481,-1.63403 0.32755,-0.434141 1.26007,-1.329965 1.79839,-1.727626 0.43613,-0.32218 1.73489,-1.015749 2.51961,-1.345545 1.38509,-0.582106 4.48439,-1.154247 6.26533,-1.156599 0.34925,-4.23e-4 0.83503,-0.02486 1.0795,-0.05423 l 0.4445,-0.05339 V 80.140259 77.104053 H 179.734 161.446 v 6.223 6.222999 h 11.71952 11.71954 z m 42.19153,-5.842 0.0217,-6.201833 h -13.45376 -13.45376 l -0.0438,5.312833 c -0.0434,5.26311 -0.071,5.798781 -0.35541,6.90059 l -0.0602,0.23309 13.66173,-0.02142 13.66175,-0.02142 z M -1.0716641,77.313095 -0.81766413,77.104893 -1.1865559,77.10447 c -0.3016902,-3.39e-4 -0.3595294,0.02398 -0.3175,0.133504 0.028266,0.07366 0.051392,0.168908 0.051392,0.211667 0,0.125129 0.1097432,0.0858 0.381,-0.13655 z M -3.179798,76.617219 c -0.4629294,-2.280916 -0.812866,-5.698399 -0.812866,-7.938443 0,-0.78824 0.1932127,-2.765591 0.3866718,-3.957223 l 0.051546,-0.3175 h -8.3471088 -8.347108 v 6.223 6.223 h 8.55806 8.5580601 z M 0.26105605,76.024553 C 2.5581354,73.776051 4.1539598,71.208429 4.9049379,68.552719 5.1444573,67.7057 5.4900023,65.453563 5.4900023,64.739481 V 64.404053 H 2.4373432 -0.61531588 l -0.20676616,0.467535 c -0.28470606,0.643772 -0.67731466,1.994229 -0.78712146,2.707465 -0.050184,0.325966 -0.1691817,1.482225 -0.2644393,2.569464 -0.1492784,1.703827 -0.161467,2.181789 -0.088264,3.461313 0.077692,1.358002 0.2778506,2.986646 0.3891966,3.166808 0.024956,0.04038 0.2580115,0.07341 0.5179026,0.07341 h 0.47252969 z M 22.423335,73.378719 v -3.471333 h 0.635 0.635 v 3.471333 3.471334 H 91.426665 159.16 v -6.223 -6.223 H 83.45894 c -72.061983,0 -75.6982549,0.0071 -75.6428194,0.148167 0.1225356,0.311768 0.1471761,1.720537 0.049979,2.857499 -0.2794102,3.268407 -0.8362417,5.841862 -1.785636,8.252502 -0.2316201,0.588116 -0.4211278,1.09597 -0.4211278,1.128566 0,0.0326 3.7718999,0.05927 8.3819992,0.05927 h 8.382 z M 198.02199,70.627053 v -6.223 H 179.734 161.446 v 6.223 6.223 h 18.288 18.28799 z m 29.18939,-0.02117 0.0217,-6.201833 h -13.46255 -13.46255 v 6.223261 6.223259 l 13.44084,-0.02143 13.44083,-0.02143 z M 5.4053356,64.014107 c 0,-0.268637 -0.2703652,-1.17191 -0.4643433,-1.551342 -0.3756888,-0.73487 -1.0408674,-1.191379 -1.7359528,-1.191379 -0.7524876,0 -2.1019794,0.78031 -2.81694028,1.628825 -0.41052579,0.487212 -0.82476337,1.082292 -0.82476337,1.184829 0,0.03576 1.31444995,0.06501 2.92099985,0.06501 2.6254261,0 2.9209999,-0.01376 2.9209999,-0.135946 z M 198.02199,52.987241 V 41.824429 l -18.26683,6.410617 -18.26683,6.410617 -0.0219,4.752195 -0.0219,4.752195 h 18.28871 18.2887 z"
         id="path112"
         inkscape:label="path112" />
    </g>
    <text
       xml:space="preserve"
       style="font-style:normal;font-weight:normal;font-size:33.8667px;line-height:1.25;font-family:sans-serif;fill:#f2f2f2;fill-opacity:1;stroke:#cccccc;stroke-width:0.264583;stroke-opacity:1"
       x="96.898483"
       y="55.284485"
       id="text4791"><tspan
         sodipodi:role="line"
         id="tspan4789"
         style="font-style:normal;font-variant:normal;font-weight:normal;font-stretch:normal;font-size:33.8667px;font-family:'Park Avenue';-inkscape-font-specification:'Park Avenue';fill:#f2f2f2;stroke-width:0.264583;stroke:#cccccc;stroke-opacity:1"
         x="96.898483"
         y="55.284485">Camerata Musica</tspan></text>
    <text
       xml:space="preserve"
       style="font-style:normal;font-weight:normal;font-size:8.46667px;line-height:1.25;font-family:sans-serif;fill:#f2f2f2;fill-opacity:1;stroke:#cccccc;stroke-width:0.264583;stroke-opacity:1"
       x="98.374352"
       y="70.07531"
       id="text21885"><tspan
         sodipodi:role="line"
         id="tspan21883"
         style="font-style:italic;font-variant:normal;font-weight:normal;font-stretch:normal;font-size:8.46667px;font-family:'Park Avenue';-inkscape-font-specification:'Park Avenue Italic';font-variant-ligatures:normal;font-variant-caps:normal;font-variant-numeric:normal;font-variant-east-asian:normal;fill:#f2f2f2;stroke-width:0.264583;stroke:#cccccc;stroke-opacity:1"
         x="98.374352"
         y="70.07531">A Tradition of Chamber Music in the Tri-Cities Since 1969</tspan></text>
  </g>
</svg>
